<svg fill="none" height="32" viewBox="0 0 32 32" width="32" xmlns="http://www.w3.org/2000/svg"><rect fill="#e7e7f3" height="32" rx="4" width="32"/><g clip-rule="evenodd" fill="#080b2d" fill-rule="evenodd"><path d="m8.25 9.5c0-.69036.55964-1.25 1.25-1.25h13c.6904 0 1.25.55964 1.25 1.25v13c0 .6904-.5596 1.25-1.25 1.25h-13c-.69036 0-1.25-.5596-1.25-1.25v-3h1.5v2.75h12.5v-12.5h-12.5v2.75h-1.5z"/><path d="m14.7647 11.5884h-1.7647v8.8235h5.1176c.4874 0 .8824-.395.8824-.8823v-4.2353c0-.4873-.395-.8824-.8824-.8824h-3.3529zm0 7.0588v-2.4706h2.4706v2.4706z"/></g></svg>