<svg fill="none" height="216" viewBox="0 0 640 216" width="640" xmlns="http://www.w3.org/2000/svg"><rect fill="#fff" height="216" rx="8" width="640"/><path d="m32.275 34.5c2.5833 0 4.5917.7167 6.025 2.15 1.45 1.4167 2.175 3.45 2.175 6.1s-.725 4.6917-2.175 6.125c-1.4333 1.4167-3.4417 2.125-6.025 2.125h-5.825v-16.5zm0 14.225c1.75 0 3.0833-.5167 4-1.55.9333-1.05 1.4-2.525 1.4-4.425s-.4667-3.3667-1.4-4.4c-.9167-1.05-2.25-1.575-4-1.575h-3.15v11.95zm11.1955 2.275v-12.5h2.275l.25 2.25c.6833-1.6667 1.9917-2.5 3.925-2.5.25 0 .5.025.75.075.25.0333.4583.0917.625.175l-.375 2.35c-.1833-.0667-.3917-.1167-.625-.15-.2167-.05-.5167-.075-.9-.075-.5333 0-1.05.1417-1.55.425-.4833.2667-.8917.6833-1.225 1.25-.3167.55-.475 1.2417-.475 2.075v6.625zm14.9592-12.75c1.2167 0 2.2917.2583 3.225.775s1.6583 1.2667 2.175 2.25c.5333.9667.8 2.125.8 3.475s-.2667 2.5167-.8 3.5c-.5167.9667-1.2417 1.7083-2.175 2.225s-2.0083.775-3.225.775-2.2917-.2583-3.225-.775-1.6667-1.2583-2.2-2.225c-.5333-.9833-.8-2.15-.8-3.5s.2667-2.5083.8-3.475c.5333-.9833 1.2667-1.7333 2.2-2.25s2.0083-.775 3.225-.775zm0 2.1c-1.1 0-1.9667.3833-2.6 1.15-.6333.75-.95 1.8333-.95 3.25s.3167 2.5083.95 3.275c.6333.75 1.5 1.125 2.6 1.125s1.9583-.375 2.575-1.125c.6333-.7667.95-1.8583.95-3.275s-.3167-2.5-.95-3.25c-.6167-.7667-1.475-1.15-2.575-1.15zm9.0652 15.9v-17.75h2.375l.125 2.35c.3667-.7833.925-1.4083 1.675-1.875.75-.4833 1.6167-.725 2.6-.725 1.0167 0 1.9334.2583 2.75.775.8334.5167 1.4917 1.2583 1.975 2.225.5.9667.75 2.125.75 3.475 0 1.3667-.25 2.5417-.75 3.525-.5.9667-1.175 1.7083-2.025 2.225-.8333.5167-1.7583.775-2.775.775-.9333 0-1.7416-.2083-2.425-.625-.6833-.4333-1.2166-.9917-1.6-1.675v7.3zm6.125-7.175c1.0667 0 1.9084-.3833 2.525-1.15.6167-.7667.925-1.825.925-3.175s-.3-2.4083-.9-3.175c-.6-.7833-1.4333-1.175-2.5-1.175-1.05 0-1.9.3917-2.55 1.175-.6333.7833-.95 1.8417-.95 3.175 0 1.3167.3084 2.3667.925 3.15.6334.7833 1.475 1.175 2.525 1.175zm11.6489-16.2v14.625c0 .6167.1083 1.0417.325 1.275.2166.2333.575.35 1.075.35.3 0 .55-.0167.75-.05.2166-.05.4833-.1333.8-.25l-.3 2c-.5834.2833-1.275.425-2.075.425-1.1167 0-1.9417-.2833-2.475-.85-.5167-.5667-.775-1.4583-.775-2.675v-14.85zm10.188 18.375c-1.25 0-2.35-.2583-3.3-.775-.9333-.5167-1.6666-1.2583-2.2-2.225-.5333-.9833-.8-2.15-.8-3.5s.2584-2.5083.775-3.475c.5334-.9833 1.2584-1.7333 2.175-2.25.9334-.5167 2-.775 3.2-.775 1.2167 0 2.25.25 3.1.75s1.5 1.1833 1.9502 2.05c.45.8667.675 1.85.675 2.95 0 .3167-.008.6083-.025.875s-.042.4917-.075.675h-9.1502c.1167 1.1667.4917 2.0583 1.125 2.675.65.6 1.4834.9 2.5.9.8334 0 1.5084-.1583 2.025-.475.5167-.3167.925-.7583 1.225-1.325l2.1252 1c-.433.9167-1.1252 1.6333-2.0752 2.15-.9333.5167-2.0166.775-3.25.775zm-.2-10.875c-.9166 0-1.675.2667-2.275.8-.5833.5333-.9583 1.3083-1.125 2.325h6.575c-.0666-1-.3833-1.7667-.95-2.3-.5666-.55-1.3083-.825-2.225-.825zm16.3102-1.875v2.1h-4.3v6.65c0 .6.167 1.05.5 1.35.333.2833.767.425 1.3.425.467 0 .858-.0667 1.175-.2.333-.15.642-.35.925-.6l.6 1.95c-.383.3333-.858.6-1.425.8-.55.1833-1.167.275-1.85.275-1.1 0-2.025-.2667-2.775-.8-.75-.55-1.125-1.4667-1.125-2.75v-7.1h-2.4v-2.1h2.4v-2.925l2.675-.75v3.675zm23.826 8.125c-.5 1.5-1.359 2.65-2.575 3.45-1.217.7833-2.634 1.175-4.25 1.175-1.6 0-2.984-.3417-4.15-1.025-1.15-.6833-2.042-1.6583-2.675-2.925-.634-1.2833-.95-2.8-.95-4.55s.316-3.2583.95-4.525c.633-1.2833 1.525-2.2667 2.675-2.95 1.166-.6833 2.541-1.025 4.125-1.025 1.633 0 3.016.3417 4.15 1.025 1.133.6833 1.95 1.6917 2.45 3.025l-2.525 1.125c-.634-1.9-1.942-2.85-3.925-2.85-1.55 0-2.792.5417-3.725 1.625-.917 1.0667-1.375 2.5833-1.375 4.55 0 1.95.441 3.4667 1.325 4.55.883 1.0833 2.116 1.625 3.7 1.625 1.016 0 1.891-.2583 2.625-.775.75-.5333 1.283-1.325 1.6-2.375zm7.964-8.375c1.217 0 2.292.2583 3.225.775.934.5167 1.659 1.2667 2.175 2.25.534.9667.8 2.125.8 3.475s-.266 2.5167-.8 3.5c-.516.9667-1.241 1.7083-2.175 2.225-.933.5167-2.008.775-3.225.775-1.216 0-2.291-.2583-3.225-.775-.933-.5167-1.666-1.2583-2.2-2.225-.533-.9833-.8-2.15-.8-3.5s.267-2.5083.8-3.475c.534-.9833 1.267-1.7333 2.2-2.25.934-.5167 2.009-.775 3.225-.775zm0 2.1c-1.1 0-1.966.3833-2.6 1.15-.633.75-.95 1.8333-.95 3.25s.317 2.5083.95 3.275c.634.75 1.5 1.125 2.6 1.125s1.959-.375 2.575-1.125c.634-.7667.95-1.8583.95-3.275s-.316-2.5-.95-3.25c-.616-.7667-1.475-1.15-2.575-1.15zm9.066 10.65v-12.5h2.375l.125 2.15c.416-.8333.991-1.4417 1.725-1.825.75-.3833 1.583-.575 2.5-.575.883 0 1.675.175 2.375.525.716.3333 1.283.85 1.7 1.55.416.6833.625 1.5417.625 2.575v8.1h-2.675v-7.275c0-1.2333-.259-2.0833-.775-2.55-.5-.4833-1.134-.725-1.9-.725-.55 0-1.084.125-1.6.375-.517.25-.95.6667-1.3 1.25-.334.5667-.5 1.325-.5 2.275v6.65zm19.728.25c-1.25 0-2.391-.2417-3.425-.725-1.033-.4833-1.85-1.1667-2.45-2.05l1.85-1.6c.367.6833.892 1.2333 1.575 1.65.7.4 1.534.6 2.5.6.767 0 1.375-.1333 1.825-.4s.675-.6417.675-1.125c0-.3167-.108-.5917-.325-.825-.2-.25-.591-.4417-1.175-.575l-2.625-.55c-1.333-.2667-2.283-.7-2.85-1.3-.566-.6-.85-1.35-.85-2.25 0-.6833.2-1.3167.6-1.9.417-.5833 1.009-1.05 1.775-1.4.767-.3667 1.692-.55 2.775-.55 1.234 0 2.292.225 3.175.675.9.4333 1.584 1.0583 2.05 1.875l-1.85 1.55c-.333-.6667-.808-1.1583-1.425-1.475-.6-.3333-1.233-.5-1.9-.5-.816 0-1.45.15-1.9.45-.433.2833-.65.6583-.65 1.125 0 .3167.125.6083.375.875.25.25.7.4417 1.35.575l2.85.6c1.2.2333 2.042.6333 2.525 1.2.5.55.75 1.225.75 2.025 0 1.2-.466 2.175-1.4 2.925-.933.7333-2.208 1.1-3.825 1.1zm13.383-13c1.217 0 2.292.2583 3.225.775.934.5167 1.659 1.2667 2.175 2.25.534.9667.8 2.125.8 3.475s-.266 2.5167-.8 3.5c-.516.9667-1.241 1.7083-2.175 2.225-.933.5167-2.008.775-3.225.775-1.216 0-2.291-.2583-3.225-.775-.933-.5167-1.666-1.2583-2.2-2.225-.533-.9833-.8-2.15-.8-3.5s.267-2.5083.8-3.475c.534-.9833 1.267-1.7333 2.2-2.25.934-.5167 2.009-.775 3.225-.775zm0 2.1c-1.1 0-1.966.3833-2.6 1.15-.633.75-.95 1.8333-.95 3.25s.317 2.5083.95 3.275c.634.75 1.5 1.125 2.6 1.125s1.959-.375 2.575-1.125c.634-.7667.95-1.8583.95-3.275s-.316-2.5-.95-3.25c-.616-.7667-1.475-1.15-2.575-1.15zm11.665-7.475v14.625c0 .6167.109 1.0417.325 1.275.217.2333.575.35 1.075.35.3 0 .55-.0167.75-.05.217-.05.484-.1333.8-.25l-.3 2c-.583.2833-1.275.425-2.075.425-1.116 0-1.941-.2833-2.475-.85-.516-.5667-.775-1.4583-.775-2.675v-14.85zm10.189 18.375c-1.25 0-2.35-.2583-3.3-.775-.934-.5167-1.667-1.2583-2.2-2.225-.534-.9833-.8-2.15-.8-3.5s.258-2.5083.775-3.475c.533-.9833 1.258-1.7333 2.175-2.25.933-.5167 2-.775 3.2-.775 1.216 0 2.25.25 3.1.75s1.5 1.1833 1.95 2.05.675 1.85.675 2.95c0 .3167-.009.6083-.025.875-.017.2667-.042.4917-.075.675h-9.15c.116 1.1667.491 2.0583 1.125 2.675.65.6 1.483.9 2.5.9.833 0 1.508-.1583 2.025-.475.516-.3167.925-.7583 1.225-1.325l2.125 1c-.434.9167-1.125 1.6333-2.075 2.15-.934.5167-2.017.775-3.25.775zm-.2-10.875c-.917 0-1.675.2667-2.275.8-.584.5333-.959 1.3083-1.125 2.325h6.575c-.067-1-.384-1.7667-.95-2.3-.567-.55-1.309-.825-2.225-.825z" fill="#000824"/><path d="m33.808 70.44v6.624c0 1.3547-.3573 2.3787-1.072 3.072-.7147.6827-1.7387 1.024-3.072 1.024-1.3227 0-2.3467-.3413-3.072-1.024-.7147-.6933-1.072-1.7173-1.072-3.072v-6.624h1.28v6.304c0 1.0987.2293 1.9093.688 2.432.4693.5227 1.1947.784 2.176.784s1.7013-.2613 2.16-.784c.4693-.5227.704-1.3333.704-2.432v-6.304zm5.7475 10.72c-.7787 0-1.4987-.1653-2.16-.496-.6507-.3307-1.152-.8-1.504-1.408l1.088-.784c.2347.4907.576.8747 1.024 1.152.4587.2773 1.008.416 1.648.416.5653 0 1.008-.1067 1.328-.32.32-.224.48-.512.48-.864 0-.224-.0747-.4267-.224-.608-.1387-.192-.4107-.3307-.816-.416l-1.92-.4c-.7787-.16-1.3387-.4267-1.68-.8-.3307-.3733-.496-.8373-.496-1.392 0-.4373.1227-.8373.368-1.2.256-.3627.6133-.6507 1.072-.864.4693-.224 1.0187-.336 1.648-.336.7893 0 1.456.1547 2 .464s.9493.7467 1.216 1.312l-1.072.704c-.1813-.4693-.4747-.8107-.88-1.024-.4053-.224-.8267-.336-1.264-.336-.576 0-1.024.1173-1.344.352s-.48.528-.48.88c0 .2347.08.4533.24.656.16.192.4587.3307.896.416l2 .416c.7467.1493 1.2693.3947 1.568.736s.448.7573.448 1.248c0 .7573-.2933 1.3653-.88 1.824-.5867.448-1.3547.672-2.304.672zm8.9015 0c-.7573 0-1.4347-.1653-2.032-.496-.5867-.3307-1.0453-.8053-1.376-1.424-.3307-.6293-.496-1.376-.496-2.24s.1653-1.6053.496-2.224c.3307-.6293.784-1.1093 1.36-1.44s1.232-.496 1.968-.496c.7467 0 1.3813.16 1.904.48.5333.32.9387.7573 1.216 1.312.2773.544.416 1.1573.416 1.84 0 .1813-.0053.3467-.016.496s-.0267.2827-.048.4h-6.032c.064.8427.3253 1.4987.784 1.968s1.0667.704 1.824.704c.5867 0 1.0613-.112 1.424-.336.3733-.224.672-.528.896-.912l1.008.592c-.2987.544-.7307.976-1.296 1.296-.5547.32-1.2213.48-2 .48zm-.112-7.2c-.672 0-1.2267.2027-1.664.608-.4267.3947-.6987.9493-.816 1.664h4.768c-.032-.7253-.256-1.2853-.672-1.68s-.9547-.592-1.616-.592zm15.943-.96v1.104h-2.912v4.688c0 .3947.112.688.336.88s.512.288.864.288c.3093 0 .576-.0533.8-.16s.4267-.2507.608-.432l.448 1.072c-.2453.224-.5387.4-.88.528-.3307.128-.7147.192-1.152.192-.4053 0-.784-.0693-1.136-.208-.352-.1493-.6347-.3787-.848-.688-.2027-.32-.3093-.736-.32-1.248v-4.912h-1.6v-1.104h1.6v-1.92l1.28-.352v2.272zm1.9031 8v-11.68h1.28v4.88c.2774-.48.6454-.8267 1.104-1.04.4587-.2133.96-.32 1.504-.32.576 0 1.0987.112 1.568.336.4694.2133.8427.544 1.12.992.288.448.432 1.0187.432 1.712v5.12h-1.28v-4.672c0-.8853-.192-1.4987-.576-1.84-.3733-.352-.8373-.528-1.392-.528-.384 0-.768.0907-1.152.272s-.704.48-.96.896c-.2453.4053-.368.9493-.368 1.632v4.24zm13.2503.16c-.7574 0-1.4347-.1653-2.032-.496-.5867-.3307-1.0454-.8053-1.376-1.424-.3307-.6293-.496-1.376-.496-2.24s.1653-1.6053.496-2.224c.3306-.6293.784-1.1093 1.36-1.44s1.232-.496 1.968-.496c.7466 0 1.3813.16 1.904.48.5333.32.9386.7573 1.216 1.312.2773.544.416 1.1573.416 1.84 0 .1813-.0054.3467-.016.496-.0107.1493-.0267.2827-.048.4h-6.032c.064.8427.3253 1.4987.784 1.968.4586.4693 1.0666.704 1.824.704.5866 0 1.0613-.112 1.424-.336.3733-.224.672-.528.896-.912l1.008.592c-.2987.544-.7307.976-1.296 1.296-.5547.32-1.2214.48-2 .48zm-.112-7.2c-.672 0-1.2267.2027-1.664.608-.4267.3947-.6987.9493-.816 1.664h4.768c-.032-.7253-.256-1.2853-.672-1.68s-.9547-.592-1.616-.592zm15.1035-3.52c1.6533 0 2.9493.4587 3.888 1.376.9493.9067 1.424 2.208 1.424 3.904s-.4747 3.0027-1.424 3.92c-.9387.9067-2.2347 1.36-3.888 1.36h-3.408v-10.56zm.128 9.36c1.2053 0 2.144-.3573 2.816-1.072.6826-.7253 1.024-1.728 1.024-3.008s-.3414-2.2773-1.024-2.992c-.672-.7253-1.6107-1.088-2.816-1.088h-2.256v8.16zm7.6771 1.2v-8h1.04l.176 1.312c.448-.9813 1.301-1.472 2.56-1.472.139 0 .288.0107.448.032.171.0213.315.064.432.128l-.224 1.168c-.117-.0427-.245-.0747-.384-.096s-.336-.032-.592-.032c-.331 0-.667.096-1.008.288-.331.192-.608.4853-.832.88-.224.384-.336.8747-.336 1.472v4.32zm9.593-8.16c.758 0 1.424.1653 2 .496.587.3307 1.046.8107 1.376 1.44.331.6187.496 1.36.496 2.224s-.165 1.6107-.496 2.24c-.33.6187-.789 1.0933-1.376 1.424-.576.3307-1.242.496-2 .496-.746 0-1.413-.1653-2-.496-.586-.3307-1.045-.8053-1.376-1.424-.33-.6293-.496-1.376-.496-2.24s.166-1.6053.496-2.224c.331-.6293.79-1.1093 1.376-1.44.587-.3307 1.254-.496 2-.496zm0 1.104c-.81 0-1.445.272-1.904.816-.458.544-.688 1.2907-.688 2.24s.23 1.696.688 2.24c.459.544 1.094.816 1.904.816.811 0 1.446-.272 1.904-.816.459-.544.688-1.2907.688-2.24s-.229-1.696-.688-2.24c-.458-.544-1.093-.816-1.904-.816zm6.282 10.416v-11.36h1.12l.08 1.408c.245-.4693.608-.848 1.088-1.136.491-.288 1.051-.432 1.68-.432.651 0 1.248.1653 1.792.496.555.3307.997.8053 1.328 1.424s.496 1.3653.496 2.24c0 .864-.171 1.6107-.512 2.24-.331.6187-.773 1.0933-1.328 1.424s-1.163.496-1.824.496c-.597 0-1.125-.128-1.584-.384-.459-.2667-.811-.608-1.056-1.024v4.608zm3.792-4.32c.789 0 1.403-.2773 1.84-.832.448-.5547.672-1.2907.672-2.208s-.219-1.6533-.656-2.208c-.427-.5547-1.029-.832-1.808-.832-.768 0-1.387.2773-1.856.832s-.704 1.2907-.704 2.208.229 1.6533.688 2.208 1.067.832 1.824.832zm7.455-10.72v9.648c0 .4053.075.688.224.848.15.1493.39.224.72.224.214 0 .39-.016.528-.048.139-.032.326-.0907.56-.176l-.208 1.12c-.352.1493-.746.224-1.184.224-1.28 0-1.92-.7147-1.92-2.144v-9.696zm7.019 11.84c-.757 0-1.435-.1653-2.032-.496-.587-.3307-1.045-.8053-1.376-1.424-.331-.6293-.496-1.376-.496-2.24s.165-1.6053.496-2.224c.331-.6293.784-1.1093 1.36-1.44s1.232-.496 1.968-.496c.747 0 1.381.16 1.904.48.533.32.939.7573 1.216 1.312.277.544.416 1.1573.416 1.84 0 .1813-.005.3467-.016.496s-.027.2827-.048.4h-6.032c.064.8427.325 1.4987.784 1.968s1.067.704 1.824.704c.587 0 1.061-.112 1.424-.336.373-.224.672-.528.896-.912l1.008.592c-.299.544-.731.976-1.296 1.296-.555.32-1.221.48-2 .48zm-.112-7.2c-.672 0-1.227.2027-1.664.608-.427.3947-.699.9493-.816 1.664h4.768c-.032-.7253-.256-1.2853-.672-1.68s-.955-.592-1.616-.592zm10.568-.96v1.104h-2.912v4.688c0 .3947.112.688.336.88s.512.288.864.288c.309 0 .576-.0533.8-.16s.427-.2507.608-.432l.448 1.072c-.245.224-.539.4-.88.528-.331.128-.715.192-1.152.192-.405 0-.784-.0693-1.136-.208-.352-.1493-.635-.3787-.848-.688-.203-.32-.309-.736-.32-1.248v-4.912h-1.6v-1.104h1.6v-1.92l1.28-.352v2.272zm16.108 5.296c-.331.9067-.875 1.6107-1.632 2.112s-1.632.752-2.624.752c-1.003 0-1.872-.2187-2.608-.656-.725-.448-1.291-1.0773-1.696-1.888-.395-.8107-.592-1.776-.592-2.896s.197-2.0853.592-2.896c.405-.8107.971-1.4347 1.696-1.872.736-.448 1.595-.672 2.576-.672 1.024 0 1.877.2133 2.56.64.693.416 1.205 1.024 1.536 1.824l-1.264.592c-.235-.608-.576-1.0667-1.024-1.376-.437-.32-1.008-.48-1.712-.48-.715 0-1.344.1707-1.888.512-.544.3307-.971.8107-1.28 1.44-.299.6293-.448 1.392-.448 2.288 0 1.3227.315 2.3627.944 3.12.64.7467 1.509 1.12 2.608 1.12.704 0 1.317-.176 1.84-.528.523-.3627.901-.9013 1.136-1.616zm5.529-5.456c.757 0 1.424.1653 2 .496.587.3307 1.045.8107 1.376 1.44.331.6187.496 1.36.496 2.224s-.165 1.6107-.496 2.24c-.331.6187-.789 1.0933-1.376 1.424-.576.3307-1.243.496-2 .496-.747 0-1.413-.1653-2-.496s-1.045-.8053-1.376-1.424c-.331-.6293-.496-1.376-.496-2.24s.165-1.6053.496-2.224c.331-.6293.789-1.1093 1.376-1.44s1.253-.496 2-.496zm0 1.104c-.811 0-1.445.272-1.904.816s-.688 1.2907-.688 2.24.229 1.696.688 2.24 1.093.816 1.904.816 1.445-.272 1.904-.816.688-1.2907.688-2.24-.229-1.696-.688-2.24-1.093-.816-1.904-.816zm6.282 7.056v-8h1.12l.08 1.248c.277-.5013.656-.8587 1.136-1.072.48-.224.997-.336 1.552-.336.576 0 1.098.112 1.568.336.469.2133.842.544 1.12.992.288.448.432 1.0187.432 1.712v5.12h-1.28v-4.672c0-.8853-.192-1.4987-.576-1.84-.374-.352-.838-.528-1.392-.528-.384 0-.768.0907-1.152.272s-.704.4747-.96.88c-.246.4053-.368.9493-.368 1.632v4.256zm12.786.16c-.779 0-1.499-.1653-2.16-.496-.651-.3307-1.152-.8-1.504-1.408l1.088-.784c.235.4907.576.8747 1.024 1.152.459.2773 1.008.416 1.648.416.565 0 1.008-.1067 1.328-.32.32-.224.48-.512.48-.864 0-.224-.075-.4267-.224-.608-.139-.192-.411-.3307-.816-.416l-1.92-.4c-.779-.16-1.339-.4267-1.68-.8-.331-.3733-.496-.8373-.496-1.392 0-.4373.123-.8373.368-1.2.256-.3627.613-.6507 1.072-.864.469-.224 1.019-.336 1.648-.336.789 0 1.456.1547 2 .464s.949.7467 1.216 1.312l-1.072.704c-.181-.4693-.475-.8107-.88-1.024-.405-.224-.827-.336-1.264-.336-.576 0-1.024.1173-1.344.352s-.48.528-.48.88c0 .2347.08.4533.24.656.16.192.459.3307.896.416l2 .416c.747.1493 1.269.3947 1.568.736s.448.7573.448 1.248c0 .7573-.293 1.3653-.88 1.824-.587.448-1.355.672-2.304.672zm8.869-8.32c.758 0 1.424.1653 2 .496.587.3307 1.046.8107 1.376 1.44.331.6187.496 1.36.496 2.224s-.165 1.6107-.496 2.24c-.33.6187-.789 1.0933-1.376 1.424-.576.3307-1.242.496-2 .496-.746 0-1.413-.1653-2-.496-.586-.3307-1.045-.8053-1.376-1.424-.33-.6293-.496-1.376-.496-2.24s.166-1.6053.496-2.224c.331-.6293.79-1.1093 1.376-1.44.587-.3307 1.254-.496 2-.496zm0 1.104c-.81 0-1.445.272-1.904.816-.458.544-.688 1.2907-.688 2.24s.23 1.696.688 2.24c.459.544 1.094.816 1.904.816.811 0 1.446-.272 1.904-.816.459-.544.688-1.2907.688-2.24s-.229-1.696-.688-2.24c-.458-.544-1.093-.816-1.904-.816zm7.498-4.624v9.648c0 .4053.075.688.224.848.149.1493.389.224.72.224.213 0 .389-.016.528-.048s.325-.0907.56-.176l-.208 1.12c-.352.1493-.747.224-1.184.224-1.28 0-1.92-.7147-1.92-2.144v-9.696zm7.019 11.84c-.758 0-1.435-.1653-2.032-.496-.587-.3307-1.046-.8053-1.376-1.424-.331-.6293-.496-1.376-.496-2.24s.165-1.6053.496-2.224c.33-.6293.784-1.1093 1.36-1.44s1.232-.496 1.968-.496c.746 0 1.381.16 1.904.48.533.32.938.7573 1.216 1.312.277.544.416 1.1573.416 1.84 0 .1813-.006.3467-.016.496-.011.1493-.027.2827-.048.4h-6.032c.064.8427.325 1.4987.784 1.968.458.4693 1.066.704 1.824.704.586 0 1.061-.112 1.424-.336.373-.224.672-.528.896-.912l1.008.592c-.299.544-.731.976-1.296 1.296-.555.32-1.222.48-2 .48zm-.112-7.2c-.672 0-1.227.2027-1.664.608-.427.3947-.699.9493-.816 1.664h4.768c-.032-.7253-.256-1.2853-.672-1.68s-.955-.592-1.616-.592zm15.734-.96v1.104h-2.672v6.896h-1.28v-6.896h-1.6v-1.104h1.6v-1.344c0-.7147.219-1.296.656-1.744.438-.448 1.094-.672 1.968-.672.278 0 .539.032.784.096.246.064.438.1547.576.272l-.336 1.04c-.256-.16-.56-.24-.912-.24-.458 0-.816.112-1.072.336-.256.2133-.384.56-.384 1.04v1.216zm4.799-.16c.757 0 1.424.1653 2 .496.587.3307 1.045.8107 1.376 1.44.331.6187.496 1.36.496 2.224s-.165 1.6107-.496 2.24c-.331.6187-.789 1.0933-1.376 1.424-.576.3307-1.243.496-2 .496-.747 0-1.413-.1653-2-.496s-1.045-.8053-1.376-1.424c-.331-.6293-.496-1.376-.496-2.24s.165-1.6053.496-2.224c.331-.6293.789-1.1093 1.376-1.44s1.253-.496 2-.496zm0 1.104c-.811 0-1.445.272-1.904.816s-.688 1.2907-.688 2.24.229 1.696.688 2.24 1.093.816 1.904.816 1.445-.272 1.904-.816.688-1.2907.688-2.24-.229-1.696-.688-2.24-1.093-.816-1.904-.816zm6.282 7.056v-8h1.04l.176 1.312c.448-.9813 1.301-1.472 2.56-1.472.138 0 .288.0107.448.032.17.0213.314.064.432.128l-.224 1.168c-.118-.0427-.246-.0747-.384-.096-.139-.0213-.336-.032-.592-.032-.331 0-.667.096-1.008.288-.331.192-.608.4853-.832.88-.224.384-.336.8747-.336 1.472v4.32zm16.097-8v1.104h-2.912v4.688c0 .3947.112.688.336.88s.512.288.864.288c.309 0 .576-.0533.8-.16s.426-.2507.608-.432l.448 1.072c-.246.224-.539.4-.88.528-.331.128-.715.192-1.152.192-.406 0-.784-.0693-1.136-.208-.352-.1493-.635-.3787-.848-.688-.203-.32-.31-.736-.32-1.248v-4.912h-1.6v-1.104h1.6v-1.92l1.28-.352v2.272zm5.247 8.16c-.758 0-1.435-.1653-2.032-.496-.587-.3307-1.046-.8053-1.376-1.424-.331-.6293-.496-1.376-.496-2.24s.165-1.6053.496-2.224c.33-.6293.784-1.1093 1.36-1.44s1.232-.496 1.968-.496c.746 0 1.381.16 1.904.48.533.32.938.7573 1.216 1.312.277.544.416 1.1573.416 1.84 0 .1813-.006.3467-.016.496-.011.1493-.027.2827-.048.4h-6.032c.064.8427.325 1.4987.784 1.968.458.4693 1.066.704 1.824.704.586 0 1.061-.112 1.424-.336.373-.224.672-.528.896-.912l1.008.592c-.299.544-.731.976-1.296 1.296-.555.32-1.222.48-2 .48zm-.112-7.2c-.672 0-1.227.2027-1.664.608-.427.3947-.699.9493-.816 1.664h4.768c-.032-.7253-.256-1.2853-.672-1.68s-.955-.592-1.616-.592zm6.002 7.04v-8h1.04l.176 1.312c.448-.9813 1.301-1.472 2.56-1.472.139 0 .288.0107.448.032.171.0213.315.064.432.128l-.224 1.168c-.117-.0427-.245-.0747-.384-.096s-.336-.032-.592-.032c-.331 0-.667.096-1.008.288-.331.192-.608.4853-.832.88-.224.384-.336.8747-.336 1.472v4.32zm6.531 0v-8h1.12l.08 1.248c.288-.4907.662-.848 1.12-1.072.47-.224.95-.336 1.44-.336.566 0 1.099.128 1.6.384.502.256.886.6507 1.152 1.184.171-.3627.411-.656.72-.88.31-.2347.646-.4053 1.008-.512.374-.1173.726-.176 1.056-.176.512 0 .998.1067 1.456.32.47.2133.854.544 1.152.992.299.448.448 1.024.448 1.728v5.12h-1.28v-4.992c0-.7253-.181-1.248-.544-1.568-.362-.32-.81-.48-1.344-.48-.416 0-.805.1013-1.168.304-.362.2027-.656.5013-.88.896-.213.3947-.32.88-.32 1.456v4.384h-1.28v-4.992c0-.7253-.181-1.248-.544-1.568-.362-.32-.81-.48-1.344-.48-.352 0-.714.096-1.088.288-.362.1813-.666.4747-.912.88-.245.4053-.368.9387-.368 1.6v4.272zm15.89-9.536c-.288 0-.522-.0853-.704-.256-.17-.1813-.256-.416-.256-.704s.086-.5173.256-.688c.182-.1813.416-.272.704-.272s.518.0907.688.272c.182.1707.272.4.272.688s-.09.5227-.272.704c-.17.1707-.4.256-.688.256zm.64 1.536v8h-1.28v-8zm2.97 8v-8h1.12l.08 1.248c.278-.5013.656-.8587 1.136-1.072.48-.224.998-.336 1.552-.336.576 0 1.099.112 1.568.336.47.2133.843.544 1.12.992.288.448.432 1.0187.432 1.712v5.12h-1.28v-4.672c0-.8853-.192-1.4987-.576-1.84-.373-.352-.837-.528-1.392-.528-.384 0-.768.0907-1.152.272s-.704.4747-.96.88c-.245.4053-.368.9493-.368 1.632v4.256zm14.579-5.168c0-.5973-.16-1.056-.48-1.376-.32-.3307-.774-.496-1.36-.496-.555 0-1.024.1227-1.408.368-.384.2347-.667.6187-.848 1.152l-1.04-.64c.213-.5973.608-1.0773 1.184-1.44.576-.3733 1.29-.56 2.144-.56.576 0 1.098.1013 1.568.304.469.192.837.4907 1.104.896.277.3947.416.9067.416 1.536v3.872c0 .384.202.576.608.576.202 0 .4-.0267.592-.08l-.064 1.008c-.214.1067-.491.16-.832.16-.395 0-.736-.096-1.024-.288-.278-.192-.459-.4853-.544-.88-.278.416-.656.7253-1.136.928-.48.192-.955.288-1.424.288-.47 0-.907-.08-1.312-.24-.406-.16-.731-.4-.976-.72-.235-.3307-.352-.736-.352-1.216 0-.5973.197-1.088.592-1.472.405-.3947.965-.6613 1.68-.8l2.912-.576zm-3.872 3.088c0 .3307.128.6027.384.816.266.2027.64.304 1.12.304.416 0 .8-.0693 1.152-.208.362-.1493.656-.368.88-.656.224-.2987.336-.6773.336-1.136v-.848l-2.32.48c-.523.1067-.912.256-1.168.448s-.384.4587-.384.8zm9.478-9.6v9.648c0 .4053.075.688.224.848.149.1493.389.224.72.224.213 0 .389-.016.528-.048s.325-.0907.56-.176l-.208 1.12c-.352.1493-.747.224-1.184.224-1.28 0-1.92-.7147-1.92-2.144v-9.696zm8.235 6.832v1.328h-5.28v-1.328zm4.14-6.832v9.648c0 .4053.075.688.224.848.149.1493.389.224.72.224.213 0 .389-.016.528-.048s.325-.0907.56-.176l-.208 1.12c-.352.1493-.747.224-1.184.224-1.28 0-1.92-.7147-1.92-2.144v-9.696zm4.315 2.144c-.288 0-.523-.0853-.704-.256-.171-.1813-.256-.416-.256-.704s.085-.5173.256-.688c.181-.1813.416-.272.704-.272s.517.0907.688.272c.181.1707.272.4.272.688s-.091.5227-.272.704c-.171.1707-.4.256-.688.256zm.64 1.536v8h-1.28v-8zm9.994 0-3.12 3.12 3.312 4.88h-1.552l-2.688-3.952-1.696 1.696v2.256h-1.28v-11.68h1.28v7.824l4.128-4.144zm5.117 8.16c-.758 0-1.435-.1653-2.032-.496-.587-.3307-1.046-.8053-1.376-1.424-.331-.6293-.496-1.376-.496-2.24s.165-1.6053.496-2.224c.33-.6293.784-1.1093 1.36-1.44s1.232-.496 1.968-.496c.746 0 1.381.16 1.904.48.533.32.938.7573 1.216 1.312.277.544.416 1.1573.416 1.84 0 .1813-.006.3467-.016.496-.011.1493-.027.2827-.049.4h-6.031c.064.8427.325 1.4987.784 1.968.458.4693 1.066.704 1.824.704.586 0 1.061-.112 1.424-.336.373-.224.672-.528.896-.912l1.008.592c-.299.544-.731.976-1.296 1.296-.555.32-1.222.48-2 .48zm-.112-7.2c-.672 0-1.227.2027-1.664.608-.427.3947-.699.9493-.816 1.664h4.768c-.032-.7253-.256-1.2853-.672-1.68s-.955-.592-1.616-.592zm16.127 1.872c0-.5973-.16-1.056-.48-1.376-.32-.3307-.773-.496-1.36-.496-.555 0-1.024.1227-1.408.368-.384.2347-.667.6187-.848 1.152l-1.04-.64c.213-.5973.608-1.0773 1.184-1.44.576-.3733 1.291-.56 2.144-.56.576 0 1.099.1013 1.568.304.469.192.837.4907 1.104.896.277.3947.416.9067.416 1.536v3.872c0 .384.203.576.608.576.203 0 .4-.0267.592-.08l-.064 1.008c-.213.1067-.491.16-.832.16-.395 0-.736-.096-1.024-.288-.277-.192-.459-.4853-.544-.88-.277.416-.656.7253-1.136.928-.48.192-.955.288-1.424.288s-.907-.08-1.312-.24-.731-.4-.976-.72c-.235-.3307-.352-.736-.352-1.216 0-.5973.197-1.088.592-1.472.405-.3947.965-.6613 1.68-.8l2.912-.576zm-3.872 3.088c0 .3307.128.6027.384.816.267.2027.64.304 1.12.304.416 0 .8-.0693 1.152-.208.363-.1493.656-.368.88-.656.224-.2987.336-.6773.336-1.136v-.848l-2.32.48c-.523.1067-.912.256-1.168.448s-.384.4587-.384.8zm11.575-6.08c.821 0 1.504.192 2.048.576.544.3733.965.8907 1.264 1.552l-1.216.576c-.171-.512-.432-.9013-.784-1.168-.342-.2773-.79-.416-1.344-.416-.8 0-1.43.272-1.888.816-.448.5333-.672 1.2747-.672 2.224s.224 1.696.672 2.24c.458.5333 1.088.8 1.888.8.629 0 1.13-.144 1.504-.432.373-.288.618-.6933.736-1.216l1.184.416c-.267.736-.688 1.312-1.264 1.728-.566.416-1.275.624-2.128.624-.747 0-1.414-.1653-2-.496-.587-.3307-1.046-.8053-1.376-1.424-.331-.6293-.496-1.376-.496-2.24s.165-1.6053.496-2.224c.33-.6293.789-1.1093 1.376-1.44.586-.3307 1.253-.496 2-.496zm8.953 0c.821 0 1.504.192 2.048.576.544.3733.965.8907 1.264 1.552l-1.216.576c-.171-.512-.432-.9013-.784-1.168-.342-.2773-.79-.416-1.344-.416-.8 0-1.43.272-1.888.816-.448.5333-.672 1.2747-.672 2.224s.224 1.696.672 2.24c.458.5333 1.088.8 1.888.8.629 0 1.13-.144 1.504-.432.373-.288.618-.6933.736-1.216l1.184.416c-.267.736-.688 1.312-1.264 1.728-.566.416-1.275.624-2.128.624-.747 0-1.414-.1653-2-.496-.587-.3307-1.046-.8053-1.376-1.424-.331-.6293-.496-1.376-.496-2.24s.165-1.6053.496-2.224c.33-.6293.789-1.1093 1.376-1.44.586-.3307 1.253-.496 2-.496zm8.985 8.32c-.758 0-1.435-.1653-2.032-.496-.587-.3307-1.046-.8053-1.376-1.424-.331-.6293-.496-1.376-.496-2.24s.165-1.6053.496-2.224c.33-.6293.784-1.1093 1.36-1.44s1.232-.496 1.968-.496c.746 0 1.381.16 1.904.48.533.32.938.7573 1.216 1.312.277.544.416 1.1573.416 1.84 0 .1813-.006.3467-.016.496-.011.1493-.027.2827-.048.4h-6.032c.064.8427.325 1.4987.784 1.968.458.4693 1.066.704 1.824.704.586 0 1.061-.112 1.424-.336.373-.224.672-.528.896-.912l1.008.592c-.299.544-.731.976-1.296 1.296-.555.32-1.222.48-2 .48zm-.112-7.2c-.672 0-1.227.2027-1.664.608-.427.3947-.699.9493-.816 1.664h4.768c-.032-.7253-.256-1.2853-.672-1.68s-.955-.592-1.616-.592zm8.882 7.2c-.779 0-1.499-.1653-2.16-.496-.651-.3307-1.152-.8-1.504-1.408l1.088-.784c.235.4907.576.8747 1.024 1.152.459.2773 1.008.416 1.648.416.565 0 1.008-.1067 1.328-.32.32-.224.48-.512.48-.864 0-.224-.075-.4267-.224-.608-.139-.192-.411-.3307-.816-.416l-1.92-.4c-.779-.16-1.339-.4267-1.68-.8-.331-.3733-.496-.8373-.496-1.392 0-.4373.123-.8373.368-1.2.256-.3627.613-.6507 1.072-.864.469-.224 1.019-.336 1.648-.336.789 0 1.456.1547 2 .464s.949.7467 1.216 1.312l-1.072.704c-.181-.4693-.475-.8107-.88-1.024-.405-.224-.827-.336-1.264-.336-.576 0-1.024.1173-1.344.352s-.48.528-.48.88c0 .2347.08.4533.24.656.16.192.459.3307.896.416l2 .416c.747.1493 1.269.3947 1.568.736s.448.7573.448 1.248c0 .7573-.293 1.3653-.88 1.824-.587.448-1.355.672-2.304.672zm8.438 0c-.779 0-1.499-.1653-2.16-.496-.651-.3307-1.152-.8-1.504-1.408l1.088-.784c.234.4907.576.8747 1.024 1.152.458.2773 1.008.416 1.648.416.565 0 1.008-.1067 1.328-.32.32-.224.48-.512.48-.864 0-.224-.075-.4267-.224-.608-.139-.192-.411-.3307-.816-.416l-1.92-.4c-.779-.16-1.339-.4267-1.68-.8-.331-.3733-.496-.8373-.496-1.392 0-.4373.122-.8373.368-1.2.256-.3627.613-.6507 1.072-.864.469-.224 1.018-.336 1.648-.336.789 0 1.456.1547 2 .464s.949.7467 1.216 1.312l-1.072.704c-.182-.4693-.475-.8107-.88-1.024-.406-.224-.827-.336-1.264-.336-.576 0-1.024.1173-1.344.352s-.48.528-.48.88c0 .2347.08.4533.24.656.16.192.458.3307.896.416l2 .416c.746.1493 1.269.3947 1.568.736.298.3413.448.7573.448 1.248 0 .7573-.294 1.3653-.88 1.824-.587.448-1.355.672-2.304.672zm15.498-8.16v1.104h-2.912v4.688c0 .3947.112.688.336.88s.512.288.864.288c.309 0 .576-.0533.8-.16s.426-.2507.608-.432l.448 1.072c-.246.224-.539.4-.88.528-.331.128-.715.192-1.152.192-.406 0-.784-.0693-1.136-.208-.352-.1493-.635-.3787-.848-.688-.203-.32-.31-.736-.32-1.248v-4.912h-1.6v-1.104h1.6v-1.92l1.28-.352v2.272zm5.215-.16c.757 0 1.424.1653 2 .496.587.3307 1.045.8107 1.376 1.44.331.6187.496 1.36.496 2.224s-.165 1.6107-.496 2.24c-.331.6187-.789 1.0933-1.376 1.424-.576.3307-1.243.496-2 .496-.747 0-1.413-.1653-2-.496s-1.045-.8053-1.376-1.424c-.331-.6293-.496-1.376-.496-2.24s.165-1.6053.496-2.224c.331-.6293.789-1.1093 1.376-1.44s1.253-.496 2-.496zm0 1.104c-.811 0-1.445.272-1.904.816s-.688 1.2907-.688 2.24.229 1.696.688 2.24 1.093.816 1.904.816 1.445-.272 1.904-.816.688-1.2907.688-2.24-.229-1.696-.688-2.24-1.093-.816-1.904-.816zm17.905-.944-3.76 9.344c-.31.7787-.662 1.3227-1.056 1.632-.384.3093-.859.464-1.424.464-.363 0-.699-.0533-1.008-.16-.299-.096-.566-.2293-.8-.4l.352-1.12c.213.192.437.3307.672.416.245.096.485.144.72.144.277 0 .538-.0853.784-.256.245-.1707.469-.5173.672-1.04l.416-1.04-.8-1.904-2.544-6.08h1.456l2 5.216.496 1.424.576-1.584 1.872-5.056zm4.986-.16c.757 0 1.424.1653 2 .496.586.3307 1.045.8107 1.376 1.44.33.6187.496 1.36.496 2.224s-.166 1.6107-.496 2.24c-.331.6187-.79 1.0933-1.376 1.424-.576.3307-1.243.496-2 .496-.747 0-1.414-.1653-2-.496-.587-.3307-1.046-.8053-1.376-1.424-.331-.6293-.496-1.376-.496-2.24s.165-1.6053.496-2.224c.33-.6293.789-1.1093 1.376-1.44.586-.3307 1.253-.496 2-.496zm0 1.104c-.811 0-1.446.272-1.904.816-.459.544-.688 1.2907-.688 2.24s.229 1.696.688 2.24c.458.544 1.093.816 1.904.816.81 0 1.445-.272 1.904-.816.458-.544.688-1.2907.688-2.24s-.23-1.696-.688-2.24c-.459-.544-1.094-.816-1.904-.816zm9.177 7.216c-.512 0-.997-.096-1.456-.288-.448-.192-.816-.5013-1.104-.928-.277-.4373-.416-1.0027-.416-1.696v-5.248h1.28v4.912c0 .8107.176 1.3707.528 1.68.352.2987.848.448 1.488.448.406 0 .79-.0907 1.152-.272.363-.192.662-.4853.896-.88.235-.3947.352-.9067.352-1.536v-4.352h1.28v8h-1.12l-.08-1.216c-.277.48-.656.832-1.136 1.056-.469.2133-1.024.32-1.664.32zm6.979-.16v-8h1.04l.176 1.312c.448-.9813 1.302-1.472 2.56-1.472.139 0 .288.0107.448.032.171.0213.315.064.432.128l-.224 1.168c-.117-.0427-.245-.0747-.384-.096-.138-.0213-.336-.032-.592-.032-.33 0-.666.096-1.008.288-.33.192-.608.4853-.832.88-.224.384-.336.8747-.336 1.472v4.32zm15.258-10.56c1.653 0 2.949.4587 3.888 1.376.949.9067 1.424 2.208 1.424 3.904s-.475 3.0027-1.424 3.92c-.939.9067-2.235 1.36-3.888 1.36h-3.408v-10.56zm.128 9.36c1.205 0 2.144-.3573 2.816-1.072.682-.7253 1.024-1.728 1.024-3.008s-.342-2.2773-1.024-2.992c-.672-.7253-1.611-1.088-2.816-1.088h-2.256v8.16zm7.677 1.2v-8h1.04l.176 1.312c.448-.9813 1.301-1.472 2.56-1.472.138 0 .288.0107.448.032.17.0213.314.064.432.128l-.224 1.168c-.118-.0427-.246-.0747-.384-.096-.139-.0213-.336-.032-.592-.032-.331 0-.667.096-1.008.288-.331.192-.608.4853-.832.88-.224.384-.336.8747-.336 1.472v4.32zm9.593-8.16c.757 0 1.424.1653 2 .496.587.3307 1.045.8107 1.376 1.44.331.6187.496 1.36.496 2.224s-.165 1.6107-.496 2.24c-.331.6187-.789 1.0933-1.376 1.424-.576.3307-1.243.496-2 .496-.747 0-1.413-.1653-2-.496s-1.045-.8053-1.376-1.424c-.331-.6293-.496-1.376-.496-2.24s.165-1.6053.496-2.224c.331-.6293.789-1.1093 1.376-1.44s1.253-.496 2-.496zm0 1.104c-.811 0-1.445.272-1.904.816s-.688 1.2907-.688 2.24.229 1.696.688 2.24 1.093.816 1.904.816 1.445-.272 1.904-.816.688-1.2907.688-2.24-.229-1.696-.688-2.24-1.093-.816-1.904-.816zm6.282 10.416v-11.36h1.12l.08 1.408c.245-.4693.608-.848 1.088-1.136.49-.288 1.05-.432 1.68-.432.65 0 1.248.1653 1.792.496.554.3307.997.8053 1.328 1.424.33.6187.496 1.3653.496 2.24 0 .864-.171 1.6107-.512 2.24-.331.6187-.774 1.0933-1.328 1.424-.555.3307-1.163.496-1.824.496-.598 0-1.126-.128-1.584-.384-.459-.2667-.811-.608-1.056-1.024v4.608zm3.792-4.32c.789 0 1.402-.2773 1.84-.832.448-.5547.672-1.2907.672-2.208s-.219-1.6533-.656-2.208c-.427-.5547-1.03-.832-1.808-.832-.768 0-1.387.2773-1.856.832-.47.5547-.704 1.2907-.704 2.208s.229 1.6533.688 2.208c.458.5547 1.066.832 1.824.832zm7.455-10.72v9.648c0 .4053.075.688.224.848.149.1493.389.224.72.224.213 0 .389-.016.528-.048s.325-.0907.56-.176l-.208 1.12c-.352.1493-.747.224-1.184.224-1.28 0-1.92-.7147-1.92-2.144v-9.696zm7.019 11.84c-.758 0-1.435-.1653-2.032-.496-.587-.3307-1.046-.8053-1.376-1.424-.331-.6293-.496-1.376-.496-2.24s.165-1.6053.496-2.224c.33-.6293.784-1.1093 1.36-1.44s1.232-.496 1.968-.496c.746 0 1.381.16 1.904.48.533.32.938.7573 1.216 1.312.277.544.416 1.1573.416 1.84 0 .1813-.006.3467-.016.496-.011.1493-.027.2827-.048.4h-6.032c.064.8427.325 1.4987.784 1.968.458.4693 1.066.704 1.824.704.586 0 1.061-.112 1.424-.336.373-.224.672-.528.896-.912l1.008.592c-.299.544-.731.976-1.296 1.296-.555.32-1.222.48-2 .48zm-.112-7.2c-.672 0-1.227.2027-1.664.608-.427.3947-.699.9493-.816 1.664h4.768c-.032-.7253-.256-1.2853-.672-1.68s-.955-.592-1.616-.592zm10.568-.96v1.104h-2.912v4.688c0 .3947.112.688.336.88s.512.288.864.288c.309 0 .576-.0533.8-.16s.426-.2507.608-.432l.448 1.072c-.246.224-.539.4-.88.528-.331.128-.715.192-1.152.192-.406 0-.784-.0693-1.136-.208-.352-.1493-.635-.3787-.848-.688-.203-.32-.31-.736-.32-1.248v-4.912h-1.6v-1.104h1.6v-1.92l1.28-.352v2.272zm11.635 0v1.104h-2.672v6.896h-1.28v-6.896h-1.6v-1.104h1.6v-1.344c0-.7147.219-1.296.656-1.744s1.093-.672 1.968-.672c.277 0 .539.032.784.096s.437.1547.576.272l-.336 1.04c-.256-.16-.56-.24-.912-.24-.459 0-.816.112-1.072.336-.256.2133-.384.56-.384 1.04v1.216zm1.705 8v-8h1.04l.176 1.312c.448-.9813 1.302-1.472 2.56-1.472.139 0 .288.0107.448.032.171.0213.315.064.432.128l-.224 1.168c-.117-.0427-.245-.0747-.384-.096-.138-.0213-.336-.032-.592-.032-.33 0-.666.096-1.008.288-.33.192-.608.4853-.832.88-.224.384-.336.8747-.336 1.472v4.32zm9.594-8.16c.757 0 1.424.1653 2 .496.586.3307 1.045.8107 1.376 1.44.33.6187.496 1.36.496 2.224s-.166 1.6107-.496 2.24c-.331.6187-.79 1.0933-1.376 1.424-.576.3307-1.243.496-2 .496-.747 0-1.414-.1653-2-.496-.587-.3307-1.046-.8053-1.376-1.424-.331-.6293-.496-1.376-.496-2.24s.165-1.6053.496-2.224c.33-.6293.789-1.1093 1.376-1.44.586-.3307 1.253-.496 2-.496zm0 1.104c-.811 0-1.446.272-1.904.816-.459.544-.688 1.2907-.688 2.24s.229 1.696.688 2.24c.458.544 1.093.816 1.904.816.81 0 1.445-.272 1.904-.816.458-.544.688-1.2907.688-2.24s-.23-1.696-.688-2.24c-.459-.544-1.094-.816-1.904-.816zm6.281 7.056v-8h1.12l.08 1.248c.288-.4907.662-.848 1.12-1.072.47-.224.95-.336 1.44-.336.566 0 1.099.128 1.6.384.502.256.886.6507 1.152 1.184.171-.3627.411-.656.72-.88.31-.2347.646-.4053 1.008-.512.374-.1173.726-.176 1.056-.176.512 0 .998.1067 1.456.32.47.2133.854.544 1.152.992.299.448.448 1.024.448 1.728v5.12h-1.28v-4.992c0-.7253-.181-1.248-.544-1.568-.362-.32-.81-.48-1.344-.48-.416 0-.805.1013-1.168.304-.362.2027-.656.5013-.88.896-.213.3947-.32.88-.32 1.456v4.384h-1.28v-4.992c0-.7253-.181-1.248-.544-1.568-.362-.32-.81-.48-1.344-.48-.352 0-.714.096-1.088.288-.362.1813-.666.4747-.912.88-.245.4053-.368.9387-.368 1.6v4.272zm26.873-8-3.76 9.344c-.309.7787-.661 1.3227-1.056 1.632-.384.3093-.859.464-1.424.464-.363 0-.699-.0533-1.008-.16-.299-.096-.565-.2293-.8-.4l.352-1.12c.213.192.437.3307.672.416.245.096.485.144.72.144.277 0 .539-.0853.784-.256s.469-.5173.672-1.04l.416-1.04-.8-1.904-2.544-6.08h1.456l2 5.216.496 1.424.576-1.584 1.872-5.056zm4.986-.16c.757 0 1.424.1653 2 .496.587.3307 1.045.8107 1.376 1.44.331.6187.496 1.36.496 2.224s-.165 1.6107-.496 2.24c-.331.6187-.789 1.0933-1.376 1.424-.576.3307-1.243.496-2 .496-.747 0-1.413-.1653-2-.496s-1.045-.8053-1.376-1.424c-.331-.6293-.496-1.376-.496-2.24s.165-1.6053.496-2.224c.331-.6293.789-1.1093 1.376-1.44s1.253-.496 2-.496zm0 1.104c-.811 0-1.445.272-1.904.816s-.688 1.2907-.688 2.24.229 1.696.688 2.24 1.093.816 1.904.816 1.445-.272 1.904-.816.688-1.2907.688-2.24-.229-1.696-.688-2.24-1.093-.816-1.904-.816zm9.178 7.216c-.512 0-.997-.096-1.456-.288-.448-.192-.816-.5013-1.104-.928-.277-.4373-.416-1.0027-.416-1.696v-5.248h1.28v4.912c0 .8107.176 1.3707.528 1.68.352.2987.848.448 1.488.448.405 0 .789-.0907 1.152-.272.363-.192.661-.4853.896-.88s.352-.9067.352-1.536v-4.352h1.28v8h-1.12l-.08-1.216c-.277.48-.656.832-1.136 1.056-.469.2133-1.024.32-1.664.32zm6.979-.16v-8h1.04l.176 1.312c.448-.9813 1.301-1.472 2.56-1.472.139 0 .288.0107.448.032.171.0213.315.064.432.128l-.224 1.168c-.117-.0427-.245-.0747-.384-.096s-.336-.032-.592-.032c-.331 0-.667.096-1.008.288-.331.192-.608.4853-.832.88-.224.384-.336.8747-.336 1.472v4.32zm-571.515 16h1.424l-2.784 8h-1.28l-2.256-6.368-2.128 6.368h-1.28l-2.784-8h1.424l2.016 6.512 2.176-6.512h1.28l2.176 6.512zm6.437 8.16c-.7573 0-1.4347-.165-2.032-.496-.5867-.331-1.0453-.805-1.376-1.424-.3307-.629-.496-1.376-.496-2.24s.1653-1.6053.496-2.224c.3307-.6293.784-1.1093 1.36-1.44s1.232-.496 1.968-.496c.7467 0 1.3813.16 1.904.48.5333.32.9387.7573 1.216 1.312.2773.544.416 1.1573.416 1.84 0 .181-.0053.347-.016.496s-.0267.283-.048.4h-6.032c.064.843.3253 1.499.784 1.968s1.0667.704 1.824.704c.5867 0 1.0613-.112 1.424-.336.3733-.224.672-.528.896-.912l1.008.592c-.2987.544-.7307.976-1.296 1.296-.5547.32-1.2213.48-2 .48zm-.112-7.2c-.672 0-1.2267.2027-1.664.608-.4267.3947-.6987.9493-.816 1.664h4.768c-.032-.7253-.256-1.2853-.672-1.68s-.9547-.592-1.616-.592zm9.9224 7.2c-.608 0-1.152-.144-1.632-.432s-.8427-.667-1.088-1.136l-.08 1.408h-1.12v-11.68h1.28v4.928c.256-.416.6133-.752 1.072-1.008.4693-.2667.9973-.4 1.584-.4.6613 0 1.2693.1653 1.824.496.5546.3307.9973.8053 1.328 1.424.3306.6187.496 1.365.496 2.24 0 .864-.1707 1.611-.512 2.24-.3307.619-.7734 1.093-1.328 1.424-.5547.331-1.1627.496-1.824.496zm-.128-1.12c.7893 0 1.4026-.277 1.84-.832.448-.555.672-1.291.672-2.208s-.2187-1.6533-.656-2.208c-.4374-.5547-1.0507-.832-1.84-.832-.7467 0-1.3547.2827-1.824.848-.4694.5653-.704 1.307-.704 2.224s.2293 1.648.688 2.192c.4693.544 1.0773.816 1.824.816zm15.6124 1.12c-.608 0-1.152-.144-1.632-.432s-.8427-.667-1.088-1.136l-.08 1.408h-1.12v-11.68h1.28v4.928c.256-.416.6133-.752 1.072-1.008.4693-.2667.9973-.4 1.584-.4.6613 0 1.2693.1653 1.824.496.5546.3307.9973.8053 1.328 1.424.3306.6187.496 1.365.496 2.24 0 .864-.1707 1.611-.512 2.24-.3307.619-.7734 1.093-1.328 1.424-.5547.331-1.1627.496-1.824.496zm-.128-1.12c.7893 0 1.4026-.277 1.84-.832.448-.555.672-1.291.672-2.208s-.2187-1.6533-.656-2.208c-.4374-.5547-1.0507-.832-1.84-.832-.7467 0-1.3547.2827-1.824.848-.4694.5653-.704 1.307-.704 2.224s.2293 1.648.688 2.192c.4693.544 1.0773.816 1.824.816zm6.2392.96v-8h1.04l.176 1.312c.448-.9813 1.3013-1.472 2.56-1.472.1387 0 .288.0107.448.032.1707.0213.3147.064.432.128l-.224 1.168c-.1173-.0427-.2453-.0747-.384-.096s-.336-.032-.592-.032c-.3307 0-.6667.096-1.008.288-.3307.192-.608.4853-.832.88-.224.384-.336.875-.336 1.472v4.32zm9.5933-8.16c.7573 0 1.424.1653 2 .496.5866.3307 1.0453.8107 1.376 1.44.3306.6187.496 1.36.496 2.224s-.1654 1.611-.496 2.24c-.3307.619-.7894 1.093-1.376 1.424-.576.331-1.2427.496-2 .496-.7467 0-1.4134-.165-2-.496-.5867-.331-1.0454-.805-1.376-1.424-.3307-.629-.496-1.376-.496-2.24s.1653-1.6053.496-2.224c.3306-.6293.7893-1.1093 1.376-1.44.5866-.3307 1.2533-.496 2-.496zm0 1.104c-.8107 0-1.4454.272-1.904.816-.4587.544-.688 1.291-.688 2.24s.2293 1.696.688 2.24c.4586.544 1.0933.816 1.904.816.8106 0 1.4453-.272 1.904-.816.4586-.544.688-1.291.688-2.24s-.2294-1.696-.688-2.24c-.4587-.544-1.0934-.816-1.904-.816zm16.0637-.944h1.424l-2.784 8h-1.28l-2.256-6.368-2.128 6.368h-1.28l-2.784-8h1.424l2.016 6.512 2.176-6.512h1.28l2.176 6.512zm6.051 8.16c-.779 0-1.499-.165-2.16-.496-.651-.331-1.152-.8-1.504-1.408l1.088-.784c.235.491.576.875 1.024 1.152.459.277 1.008.416 1.648.416.565 0 1.008-.107 1.328-.32.32-.224.48-.512.48-.864 0-.224-.075-.427-.224-.608-.139-.192-.411-.331-.816-.416l-1.92-.4c-.779-.16-1.339-.427-1.68-.8-.331-.373-.496-.8373-.496-1.392 0-.4373.123-.8373.368-1.2.256-.3627.613-.6507 1.072-.864.469-.224 1.019-.336 1.648-.336.789 0 1.456.1547 2 .464s.949.7467 1.216 1.312l-1.072.704c-.181-.4693-.475-.8107-.88-1.024-.405-.224-.827-.336-1.264-.336-.576 0-1.024.1173-1.344.352s-.48.528-.48.88c0 .2347.08.4533.24.656.16.192.459.331.896.416l2 .416c.747.149 1.269.395 1.568.736s.448.757.448 1.248c0 .757-.293 1.365-.88 1.824-.587.448-1.355.672-2.304.672zm8.902 0c-.758 0-1.435-.165-2.032-.496-.587-.331-1.046-.805-1.376-1.424-.331-.629-.496-1.376-.496-2.24s.165-1.6053.496-2.224c.33-.6293.784-1.1093 1.36-1.44s1.232-.496 1.968-.496c.746 0 1.381.16 1.904.48.533.32.938.7573 1.216 1.312.277.544.416 1.1573.416 1.84 0 .181-.006.347-.016.496-.011.149-.027.283-.048.4h-6.032c.064.843.325 1.499.784 1.968.458.469 1.066.704 1.824.704.586 0 1.061-.112 1.424-.336.373-.224.672-.528.896-.912l1.008.592c-.299.544-.731.976-1.296 1.296-.555.32-1.222.48-2 .48zm-.112-7.2c-.672 0-1.227.2027-1.664.608-.427.3947-.699.9493-.816 1.664h4.768c-.032-.7253-.256-1.2853-.672-1.68s-.955-.592-1.616-.592zm6.002 7.04v-8h1.04l.176 1.312c.448-.9813 1.301-1.472 2.56-1.472.139 0 .288.0107.448.032.171.0213.315.064.432.128l-.224 1.168c-.117-.0427-.245-.0747-.384-.096s-.336-.032-.592-.032c-.331 0-.667.096-1.008.288-.331.192-.608.4853-.832.88-.224.384-.336.875-.336 1.472v4.32zm5.89-1.92c.309 0 .56.096.752.288s.288.443.288.752-.096.56-.288.752-.443.288-.752.288-.56-.096-.752-.288-.288-.443-.288-.752.096-.56.288-.752.443-.288.752-.288z" fill="#535772"/><path d="m39.136 153.446h4.872v1.554h-6.804v-9.24h1.932zm9.3492-5.586c.7 0 1.3206.145 1.862.434.5413.289.9613.705 1.26 1.246.308.541.462 1.195.462 1.96s-.154 1.419-.462 1.96c-.2987.541-.7187.957-1.26 1.246-.5414.289-1.162.434-1.862.434-.7094 0-1.3347-.145-1.876-.434-.532-.289-.952-.705-1.26-1.246-.2987-.541-.448-1.195-.448-1.96s.1493-1.419.448-1.96c.308-.541.728-.957 1.26-1.246.5413-.289 1.1666-.434 1.876-.434zm0 1.428c-.5227 0-.9334.187-1.232.56-.2894.364-.434.915-.434 1.652s.1446 1.293.434 1.666c.2986.364.7093.546 1.232.546.5133 0 .9146-.182 1.204-.546.2986-.373.448-.929.448-1.666s-.1494-1.288-.448-1.652c-.2894-.373-.6907-.56-1.204-.56zm9.2921 4.396c.756 0 1.3394.163 1.75.49.4107.327.616.784.616 1.372 0 .541-.154.994-.462 1.358s-.742.639-1.302.826c-.5506.187-1.19.28-1.918.28-1.204 0-2.086-.168-2.646-.504-.5506-.336-.826-.775-.826-1.316 0-.317.098-.597.294-.84.2054-.233.532-.397.98-.49-.6253-.233-.938-.672-.938-1.316 0-.317.0934-.597.28-.84.196-.243.462-.425.798-.546-.7373-.411-1.106-1.05-1.106-1.918 0-.737.2847-1.316.854-1.736.5694-.429 1.3487-.644 2.338-.644.56 0 1.064.075 1.512.224.0654-.485.2614-.896.588-1.232.3267-.345.77-.518 1.33-.518h.07.084l.224 1.372c-.0746-.009-.1586-.014-.252-.014-.3546 0-.6393.07-.854.21-.2146.131-.35.322-.406.574.5974.42.896 1.008.896 1.764 0 .728-.2893 1.307-.868 1.736-.5693.42-1.344.63-2.324.63-.4293 0-.8213-.037-1.176-.112-.2146.056-.3686.14-.462.252-.084.103-.126.219-.126.35 0 .392.2987.588.896.588zm-1.288-4.62c-.3733 0-.6813.103-.924.308-.2426.205-.364.49-.364.854s.1214.653.364.868c.2427.205.5507.308.924.308.364 0 .6674-.103.91-.308.2427-.215.364-.504.364-.868s-.1213-.649-.364-.854c-.2426-.205-.546-.308-.91-.308zm-.014 7.63c.7187 0 1.2507-.089 1.596-.266.3547-.168.532-.373.532-.616 0-.177-.07-.322-.21-.434-.14-.103-.392-.154-.756-.154h-2.366c-.224 0-.4106.056-.56.168-.14.121-.21.275-.21.462 0 .261.1727.467.518.616.3547.149.84.224 1.456.224zm10.0729-9.702c-.7933 0-1.19-.341-1.19-1.022 0-.691.3967-1.036 1.19-1.036.7934 0 1.19.345 1.19 1.036 0 .681-.3966 1.022-1.19 1.022zm.952 1.008v7h-1.918v-7zm2.0332 7v-7h1.722l.07 1.316c.2147-.485.5273-.849.938-1.092.42-.243.9007-.364 1.442-.364.728 0 1.33.215 1.806.644.476.42.714 1.055.714 1.904v4.592h-1.918v-4.046c0-.597-.1213-1.008-.364-1.232-.2333-.233-.532-.35-.896-.35-.2613 0-.518.065-.77.196-.2427.121-.4433.322-.602.602-.1493.28-.224.653-.224 1.12v3.71zm16.9373-4.466c0-.401-.1167-.714-.35-.938-.224-.224-.5227-.336-.896-.336-.3454 0-.6487.089-.91.266-.2614.177-.4527.471-.574.882l-1.638-.504c.1586-.616.504-1.111 1.036-1.484.5413-.373 1.2646-.56 2.17-.56.9146 0 1.652.219 2.212.658.5693.429.854 1.073.854 1.932v2.842c0 .355.168.532.504.532.1586 0 .308-.023.448-.07l-.112 1.19c-.2427.121-.546.182-.91.182-.4014 0-.7514-.084-1.05-.252-.2894-.168-.4854-.42-.588-.756-.224.336-.546.593-.966.77-.4107.168-.8354.252-1.274.252-.7094 0-1.274-.159-1.694-.476-.4107-.327-.616-.798-.616-1.414 0-.523.168-.947.504-1.274.336-.336.8166-.565 1.442-.686l2.408-.49zm-2.436 2.534c0 .233.084.411.252.532.1773.121.3873.182.63.182.2706 0 .5226-.042.756-.126.2333-.084.4246-.224.574-.42.1493-.205.224-.476.224-.812v-.434l-1.47.294c-.3174.065-.56.154-.728.266-.1587.103-.238.275-.238.518zm9.285 2.072c-.7093 0-1.358-.126-1.946-.378-.5786-.252-1.05-.607-1.414-1.064l1.106-1.12c.224.336.5227.611.896.826.3734.215.8167.322 1.33.322.364 0 .6534-.051.868-.154.224-.112.336-.285.336-.518 0-.149-.0513-.275-.154-.378-.1026-.112-.308-.201-.616-.266l-1.232-.252c-.812-.168-1.3906-.42-1.736-.756-.336-.345-.504-.789-.504-1.33 0-.383.112-.742.336-1.078.2334-.336.5787-.607 1.036-.812.4574-.215 1.0267-.322 1.708-.322 1.4187 0 2.436.434 3.052 1.302l-1.148 1.12c-.2053-.327-.476-.574-.812-.742-.3266-.177-.672-.266-1.036-.266-.8213 0-1.232.229-1.232.686 0 .149.0654.28.196.392.1307.103.3687.191.714.266l1.428.294c.6907.14 1.1854.378 1.484.714.2987.327.448.723.448 1.19 0 .672-.2706 1.227-.812 1.666-.532.439-1.2973.658-2.296.658zm5.6035-2.282c.3734 0 .6674.103.882.308.2238.205.3358.481.3358.826 0 .355-.112.635-.3358.84-.2146.196-.5086.294-.882.294-.3826 0-.6813-.098-.896-.294-.2146-.205-.322-.485-.322-.84 0-.345.1074-.621.322-.826.2147-.205.5134-.308.896-.308zm3.9378 0c.373 0 .667.103.882.308.224.205.336.481.336.826 0 .355-.112.635-.336.84-.215.196-.509.294-.882.294-.383 0-.682-.098-.896-.294-.215-.205-.322-.485-.322-.84 0-.345.107-.621.322-.826.214-.205.513-.308.896-.308zm3.937 0c.374 0 .668.103.882.308.224.205.336.481.336.826 0 .355-.112.635-.336.84-.214.196-.508.294-.882.294-.382 0-.681-.098-.896-.294-.214-.205-.322-.485-.322-.84 0-.345.108-.621.322-.826.215-.205.514-.308.896-.308z" fill="#535772"/><path d="m37.488 173v-8h1.04l.176 1.312c.448-.981 1.3013-1.472 2.56-1.472.1387 0 .288.011.448.032.1707.021.3147.064.432.128l-.224 1.168c-.1173-.043-.2453-.075-.384-.096s-.336-.032-.592-.032c-.3307 0-.6667.096-1.008.288-.3307.192-.608.485-.832.88-.224.384-.336.875-.336 1.472v4.32zm9.5933-8.16c.7573 0 1.424.165 2 .496.5866.331 1.0453.811 1.376 1.44.3306.619.496 1.36.496 2.224s-.1654 1.611-.496 2.24c-.3307.619-.7894 1.093-1.376 1.424-.576.331-1.2427.496-2 .496-.7467 0-1.4134-.165-2-.496-.5867-.331-1.0454-.805-1.376-1.424-.3307-.629-.496-1.376-.496-2.24s.1653-1.605.496-2.224c.3306-.629.7893-1.109 1.376-1.44.5866-.331 1.2533-.496 2-.496zm0 1.104c-.8107 0-1.4454.272-1.904.816-.4587.544-.688 1.291-.688 2.24s.2293 1.696.688 2.24c.4586.544 1.0933.816 1.904.816.8106 0 1.4453-.272 1.904-.816.4586-.544.688-1.291.688-2.24s-.2294-1.696-.688-2.24c-.4587-.544-1.0934-.816-1.904-.816zm9.5937-1.104c.7573 0 1.424.165 2 .496.5867.331 1.0453.811 1.376 1.44.3307.619.496 1.36.496 2.224s-.1653 1.611-.496 2.24c-.3307.619-.7893 1.093-1.376 1.424-.576.331-1.2427.496-2 .496-.7467 0-1.4133-.165-2-.496s-1.0453-.805-1.376-1.424c-.3307-.629-.496-1.376-.496-2.24s.1653-1.605.496-2.224c.3307-.629.7893-1.109 1.376-1.44s1.2533-.496 2-.496zm0 1.104c-.8107 0-1.4453.272-1.904.816s-.688 1.291-.688 2.24.2293 1.696.688 2.24 1.0933.816 1.904.816 1.4453-.272 1.904-.816.688-1.291.688-2.24-.2293-1.696-.688-2.24-1.0933-.816-1.904-.816zm10.9411-.944v1.104h-2.912v4.688c0 .395.112.688.336.88s.512.288.864.288c.3094 0 .576-.053.8-.16s.4267-.251.608-.432l.448 1.072c-.2453.224-.5386.4-.88.528-.3306.128-.7146.192-1.152.192-.4053 0-.784-.069-1.136-.208-.352-.149-.6346-.379-.848-.688-.2026-.32-.3093-.736-.32-1.248v-4.912h-1.6v-1.104h1.6v-1.92l1.28-.352v2.272z" fill="#000824"/><rect height="48" rx="3" stroke="#c0c2d3" width="339" x="24" y="136"/><rect fill="#0069ff" height="48" rx="4" width="237" x="379" y="136"/><path d="m406.631 163.224h5.568v1.776h-7.776v-10.56h2.208zm11.737-3.328c0-.459-.133-.816-.4-1.072-.256-.256-.597-.384-1.024-.384-.394 0-.741.101-1.04.304-.298.203-.517.539-.656 1.008l-1.872-.576c.182-.704.576-1.269 1.184-1.696.619-.427 1.446-.64 2.48-.64.704 0 1.318.112 1.84.336.523.213.928.539 1.216.976.299.437.448.987.448 1.648v3.248c0 .405.192.608.576.608.182 0 .352-.027.512-.08l-.128 1.36c-.277.139-.624.208-1.04.208-.373 0-.709-.064-1.008-.192-.298-.128-.533-.32-.704-.576-.17-.267-.256-.597-.256-.992v-.064l.384-.064c-.064.405-.24.752-.528 1.04-.288.277-.64.491-1.056.64-.405.149-.826.224-1.264.224-.544 0-1.013-.08-1.408-.24-.394-.171-.698-.416-.912-.736-.213-.32-.32-.715-.32-1.184 0-.597.192-1.083.576-1.456.384-.384.934-.645 1.648-.784l3.008-.608-.016 1.36-1.92.384c-.362.075-.64.176-.832.304-.181.117-.272.315-.272.592 0 .267.096.469.288.608.203.139.443.208.72.208.224 0 .443-.027.656-.08.214-.053.406-.139.576-.256.171-.117.304-.277.4-.48s.144-.448.144-.736zm7.412 5.264c-.534 0-1.014-.096-1.44-.288-.427-.192-.768-.496-1.024-.912-.246-.427-.368-.976-.368-1.648v-5.312h2.192v4.784c0 .619.128 1.051.384 1.296.256.235.624.352 1.104.352.224 0 .442-.037.656-.112.213-.085.4-.213.56-.384.17-.171.304-.389.4-.656.096-.277.144-.603.144-.976v-4.304h2.192v8h-1.952l-.08-1.392c-.267.533-.635.928-1.104 1.184-.459.245-1.014.368-1.664.368zm7.106-.16v-8h1.968l.128 2.4-.272-.256c.128-.523.331-.949.608-1.28.278-.341.614-.597 1.008-.768.406-.171.848-.256 1.328-.256.555 0 1.046.107 1.472.32.438.213.779.539 1.024.976.256.427.384.965.384 1.616v5.248h-2.192v-4.624c0-.683-.133-1.152-.4-1.408-.266-.267-.613-.4-1.04-.4-.298 0-.592.075-.88.224-.277.139-.506.368-.688.688-.17.32-.256.747-.256 1.28v4.24zm13.539-8.16c.714 0 1.317.107 1.808.32.501.203.901.485 1.2.848.309.352.528.747.656 1.184l-2.048.736c-.107-.48-.288-.843-.544-1.088s-.603-.368-1.04-.368c-.406 0-.752.096-1.04.288-.288.181-.507.464-.656.848-.15.373-.224.843-.224 1.408s.074 1.035.224 1.408c.16.373.384.651.672.832.298.181.645.272 1.04.272.32 0 .592-.053.816-.16.224-.117.405-.283.544-.496.149-.213.25-.469.304-.768l1.984.64c-.118.48-.336.901-.656 1.264s-.731.645-1.232.848c-.502.203-1.083.304-1.744.304-.822 0-1.547-.165-2.176-.496-.63-.331-1.115-.805-1.456-1.424-.342-.619-.512-1.365-.512-2.24s.17-1.621.512-2.24c.341-.619.821-1.093 1.44-1.424.618-.331 1.328-.496 2.128-.496zm5.399 8.16v-11.504h2.192v4.864c.256-.512.608-.891 1.056-1.136.448-.256.955-.384 1.52-.384.555 0 1.045.107 1.472.32.437.213.779.539 1.024.976.256.427.384.965.384 1.616v5.248h-2.192v-4.608c0-.693-.133-1.168-.4-1.424-.267-.267-.608-.4-1.024-.4-.309 0-.608.075-.896.224-.277.139-.507.373-.688.704-.171.32-.256.747-.256 1.28v4.224zm19.101-10.56c1.653 0 2.933.459 3.84 1.376.906.907 1.36 2.208 1.36 3.904 0 1.685-.454 2.987-1.36 3.904-.907.917-2.187 1.376-3.84 1.376h-4.08v-10.56zm-.112 8.8c1.002 0 1.754-.299 2.256-.896.512-.608.768-1.483.768-2.624s-.256-2.011-.768-2.608c-.502-.608-1.254-.912-2.256-.912h-1.76v7.04zm7.261 1.76v-8h1.904l.144 1.568c.213-.555.523-.981.928-1.28.416-.299.933-.448 1.552-.448.181 0 .347.016.496.048s.272.075.368.128l-.256 1.84c-.107-.043-.24-.075-.4-.096-.149-.021-.347-.032-.592-.032-.32 0-.629.08-.928.24-.299.149-.544.384-.736.704-.192.309-.288.704-.288 1.184v4.144zm10.242-8.16c.81 0 1.52.165 2.128.496.618.331 1.098.805 1.44 1.424.352.619.528 1.365.528 2.24 0 .864-.176 1.611-.528 2.24-.342.619-.822 1.093-1.44 1.424-.608.331-1.318.496-2.128.496-.8 0-1.51-.165-2.128-.496-.619-.331-1.104-.805-1.456-1.424-.342-.629-.512-1.376-.512-2.24 0-.875.17-1.621.512-2.24.352-.619.837-1.093 1.456-1.424.618-.331 1.328-.496 2.128-.496zm0 1.632c-.406 0-.752.096-1.04.288-.278.181-.491.459-.64.832-.15.373-.224.843-.224 1.408s.074 1.035.224 1.408c.149.373.362.656.64.848.288.181.634.272 1.04.272.394 0 .73-.091 1.008-.272.288-.192.506-.475.656-.848.149-.373.224-.843.224-1.408s-.075-1.035-.224-1.408c-.15-.373-.368-.651-.656-.832-.278-.192-.614-.288-1.008-.288zm5.93 9.888v-11.36h1.968l.144 2.544-.272-.288c.096-.469.272-.885.528-1.248.266-.363.602-.645 1.008-.848.405-.213.858-.32 1.36-.32.65 0 1.232.165 1.744.496s.912.805 1.2 1.424c.298.608.448 1.349.448 2.224s-.15 1.627-.448 2.256c-.299.619-.71 1.093-1.232 1.424-.512.331-1.099.496-1.76.496-.704 0-1.291-.197-1.76-.592-.459-.395-.774-.891-.944-1.488l.208-.336v5.616zm4.048-4.88c.586 0 1.045-.208 1.376-.624.341-.427.512-1.045.512-1.856s-.166-1.424-.496-1.84c-.32-.427-.774-.64-1.36-.64-.374 0-.704.101-.992.304-.278.192-.496.475-.656.848-.16.363-.24.805-.24 1.328 0 .501.074.944.224 1.328.149.373.362.661.64.864.288.192.618.288.992.288zm8.143-9.984v9.04c0 .373.064.635.192.784s.341.224.64.224c.181 0 .331-.011.448-.032.117-.032.267-.075.448-.128l-.192 1.44c-.181.107-.411.187-.688.24-.267.064-.533.096-.8.096-.779 0-1.349-.187-1.712-.56-.352-.384-.528-.992-.528-1.824v-9.28zm6.661 11.664c-.842 0-1.578-.165-2.208-.496-.618-.331-1.098-.805-1.44-1.424-.341-.619-.512-1.365-.512-2.24s.171-1.621.512-2.24c.342-.619.816-1.093 1.424-1.424.619-.331 1.323-.496 2.112-.496.811 0 1.499.165 2.064.496.566.32.998.763 1.296 1.328.299.555.448 1.189.448 1.904 0 .213-.005.416-.016.608-.01.192-.026.363-.048.512h-6.384v-1.52h5.424l-1.056.384c0-.672-.154-1.189-.464-1.552-.298-.363-.725-.544-1.28-.544-.405 0-.757.096-1.056.288-.288.192-.506.48-.656.864-.149.373-.224.848-.224 1.424 0 .565.08 1.035.24 1.408.171.363.406.635.704.816.31.181.678.272 1.104.272.47 0 .848-.091 1.136-.272s.512-.432.672-.752l1.744.672c-.17.416-.432.773-.784 1.072-.341.299-.752.528-1.232.688-.469.149-.976.224-1.52.224zm8.245-10.608v7.84c0 .384.096.667.288.848.203.171.475.256.816.256.278 0 .512-.037.704-.112.203-.085.384-.197.544-.336l.352 1.456c-.256.203-.576.363-.96.48s-.789.176-1.216.176c-.533 0-1.008-.08-1.424-.24-.405-.16-.725-.416-.96-.768-.224-.352-.336-.821-.336-1.408v-7.584zm2.56 2.448v1.632h-6.224v-1.632zm15.638 5.088c-.203.683-.523 1.253-.96 1.712s-.955.8-1.552 1.024-1.253.336-1.968.336c-1.045 0-1.952-.219-2.72-.656-.757-.437-1.344-1.061-1.76-1.872-.405-.811-.608-1.781-.608-2.912s.203-2.101.608-2.912c.416-.811 1.003-1.435 1.76-1.872.768-.437 1.664-.656 2.688-.656.725 0 1.381.101 1.968.304.587.192 1.083.496 1.488.912.416.405.72.912.912 1.52l-2 .848c-.181-.64-.459-1.093-.832-1.36-.373-.277-.853-.416-1.44-.416-.576 0-1.083.139-1.52.416-.427.277-.757.688-.992 1.232-.235.533-.352 1.195-.352 1.984 0 .779.107 1.44.32 1.984.224.544.549.955.976 1.232s.949.416 1.568.416c.576 0 1.072-.155 1.488-.464.427-.309.725-.779.896-1.408zm5.306-5.248c.811 0 1.52.165 2.128.496.619.331 1.099.805 1.44 1.424.352.619.528 1.365.528 2.24 0 .864-.176 1.611-.528 2.24-.341.619-.821 1.093-1.44 1.424-.608.331-1.317.496-2.128.496-.8 0-1.509-.165-2.128-.496s-1.104-.805-1.456-1.424c-.341-.629-.512-1.376-.512-2.24 0-.875.171-1.621.512-2.24.352-.619.837-1.093 1.456-1.424s1.328-.496 2.128-.496zm0 1.632c-.405 0-.752.096-1.04.288-.277.181-.491.459-.64.832s-.224.843-.224 1.408.075 1.035.224 1.408.363.656.64.848c.288.181.635.272 1.04.272.395 0 .731-.091 1.008-.272.288-.192.507-.475.656-.848s.224-.843.224-1.408-.075-1.035-.224-1.408-.368-.651-.656-.832c-.277-.192-.613-.288-1.008-.288zm5.93 6.528v-8h1.968l.128 2.4-.272-.256c.128-.523.331-.949.608-1.28.277-.341.613-.597 1.008-.768.405-.171.848-.256 1.328-.256.555 0 1.045.107 1.472.32.437.213.779.539 1.024.976.256.427.384.965.384 1.616v5.248h-2.192v-4.624c0-.683-.133-1.152-.4-1.408-.267-.267-.613-.4-1.04-.4-.299 0-.592.075-.88.224-.277.139-.507.368-.688.688-.171.32-.256.747-.256 1.28v4.24zm13.106.16c-.81 0-1.552-.144-2.224-.432-.661-.288-1.2-.693-1.616-1.216l1.264-1.28c.256.384.598.699 1.024.944.427.245.934.368 1.52.368.416 0 .747-.059.992-.176.256-.128.384-.325.384-.592 0-.171-.058-.315-.176-.432-.117-.128-.352-.229-.704-.304l-1.408-.288c-.928-.192-1.589-.48-1.984-.864-.384-.395-.576-.901-.576-1.52 0-.437.128-.848.384-1.232.267-.384.662-.693 1.184-.928.523-.245 1.174-.368 1.952-.368.8 0 1.494.128 2.08.384.598.245 1.067.613 1.408 1.104l-1.312 1.28c-.234-.373-.544-.656-.928-.848-.373-.203-.768-.304-1.184-.304-.298 0-.554.032-.768.096-.213.064-.373.155-.48.272-.106.107-.16.245-.16.416s.075.32.224.448c.15.117.422.219.816.304l1.632.336c.79.16 1.355.432 1.696.816.342.373.512.827.512 1.36 0 .512-.138.971-.416 1.376-.266.395-.666.709-1.2.944-.522.224-1.168.336-1.936.336zm8.917-8.32c.811 0 1.52.165 2.128.496.619.331 1.099.805 1.44 1.424.352.619.528 1.365.528 2.24 0 .864-.176 1.611-.528 2.24-.341.619-.821 1.093-1.44 1.424-.608.331-1.317.496-2.128.496-.8 0-1.509-.165-2.128-.496s-1.104-.805-1.456-1.424c-.341-.629-.512-1.376-.512-2.24 0-.875.171-1.621.512-2.24.352-.619.837-1.093 1.456-1.424s1.328-.496 2.128-.496zm0 1.632c-.405 0-.752.096-1.04.288-.277.181-.491.459-.64.832s-.224.843-.224 1.408.075 1.035.224 1.408.363.656.64.848c.288.181.635.272 1.04.272.395 0 .731-.091 1.008-.272.288-.192.507-.475.656-.848s.224-.843.224-1.408-.075-1.035-.224-1.408-.368-.651-.656-.832c-.277-.192-.613-.288-1.008-.288zm8.09-4.976v9.04c0 .373.064.635.192.784s.341.224.64.224c.181 0 .331-.011.448-.032.117-.032.267-.075.448-.128l-.192 1.44c-.181.107-.411.187-.688.24-.267.064-.533.096-.8.096-.779 0-1.349-.187-1.712-.56-.352-.384-.528-.992-.528-1.824v-9.28zm6.662 11.664c-.843 0-1.579-.165-2.208-.496-.619-.331-1.099-.805-1.44-1.424-.342-.619-.512-1.365-.512-2.24s.17-1.621.512-2.24c.341-.619.816-1.093 1.424-1.424.618-.331 1.322-.496 2.112-.496.81 0 1.498.165 2.064.496.565.32.997.763 1.296 1.328.298.555.448 1.189.448 1.904 0 .213-.006.416-.016.608-.011.192-.027.363-.048.512h-6.385v-1.52h5.425l-1.056.384c0-.672-.155-1.189-.464-1.552-.299-.363-.726-.544-1.28-.544-.406 0-.758.096-1.056.288-.288.192-.507.48-.656.864-.15.373-.224.848-.224 1.424 0 .565.08 1.035.24 1.408.17.363.405.635.704.816.309.181.677.272 1.104.272.469 0 .848-.091 1.136-.272s.512-.432.672-.752l1.744.672c-.171.416-.432.773-.784 1.072-.342.299-.752.528-1.232.688-.47.149-.976.224-1.52.224z" fill="#fff"/></svg>