<svg fill="none" height="32" viewBox="0 0 32 32" width="32" xmlns="http://www.w3.org/2000/svg"><rect fill="#e7e7f3" height="32" rx="4" width="32"/><path clip-rule="evenodd" d="m19 21.3572h-8c0 1.1834.8954 2.1428 2 2.1428h6c1.1045 0 2-.9594 2-2.1428v-8.7995c0-.0207-.0077-.0406-.0214-.0552-.0137-.0147-.0322-.0229-.0515-.0229h-1.8543c-.0193 0-.0378.0082-.0515.0229-.0137.0146-.0214.0345-.0214.0552zm0-12.8572c1.1045 0 2 .95938 2 2.1429h-8v8.7995c0 .0207-.0077.0405-.0213.0552-.0137.0146-.0322.0229-.0515.0229h-1.8543c-.0096 0-.0191-.002-.0279-.006-.0089-.0039-.0169-.0096-.0237-.0169-.0067-.0073-.0121-.0159-.0158-.0254-.0036-.0095-.0055-.0196-.0055-.0299v-8.7994c0-1.18346.8954-2.1429 2-2.1429z" fill="#080b2d" fill-rule="evenodd"/></svg>