<svg fill="none" height="32" viewBox="0 0 32 32" width="32" xmlns="http://www.w3.org/2000/svg"><rect fill="#e7e7f3" height="32" rx="4" width="32"/><g clip-rule="evenodd" fill="#080b2d" fill-rule="evenodd"><path d="m16 9c-1.9011 0-2.1395.00805-2.8861.04213-.7451.03396-1.254.1523-1.6992.32537-.4603.17885-.8506.41821-1.2398.8074-.38919.3892-.62849.7795-.8074 1.2398-.17307.4452-.29141.9541-.32537 1.6992-.03408.7466-.04213.985-.04213 2.8861s.00805 2.1395.04213 2.8861c.03396.7451.1523 1.254.32537 1.6992.17885.4603.41821.8506.8074 1.2398.3892.3892.7795.6285 1.2398.8074.4452.1731.9541.2914 1.6992.3254.7466.034.985.0421 2.8861.0421s2.1395-.0081 2.8861-.0421c.7451-.034 1.254-.1523 1.6992-.3254.4603-.1788.8506-.4182 1.2398-.8074s.6286-.7795.8075-1.2398c.173-.4452.2913-.9541.3253-1.6992.034-.7466.0421-.985.0421-2.8861s-.0081-2.1395-.0421-2.8861c-.034-.7451-.1523-1.254-.3253-1.6992-.1789-.4603-.4183-.8506-.8075-1.2398-.3892-.38919-.7795-.62855-1.2398-.8074-.4452-.17307-.9541-.29141-1.6992-.32537-.7466-.03408-.985-.04213-2.8861-.04213zm0 1.2612c1.8691 0 2.0905.0072 2.8286.0409.6825.0311 1.0531.1451 1.2998.241.3268.127.5599.2786.8049.5236s.3966.4781.5236.8049c.0959.2467.2099.6173.241 1.2998.0337.7381.0409.9595.0409 2.8286s-.0072 2.0905-.0409 2.8286c-.0311.6825-.1451 1.0531-.241 1.2998-.127.3268-.2786.5599-.5236.8048-.245.2451-.4781.3967-.8049.5237-.2467.0959-.6173.2099-1.2998.241-.738.0337-.9594.0408-2.8286.0408s-2.0906-.0071-2.8286-.0408c-.6825-.0311-1.0531-.1451-1.2998-.241-.3268-.127-.5599-.2786-.8048-.5237-.245-.2449-.3967-.478-.5237-.8048-.0959-.2467-.2099-.6173-.241-1.2998-.0337-.7381-.0408-.9595-.0408-2.8286s.0071-2.0905.0408-2.8286c.0311-.6825.1451-1.0531.241-1.2998.127-.3268.2786-.5599.5237-.8049.2449-.245.478-.3966.8048-.5236.2467-.0959.6173-.2099 1.2998-.241.7381-.0337.9595-.0409 2.8286-.0409z"/><path d="m15.9999 18.3343c-1.2887 0-2.3334-1.0447-2.3334-2.3333 0-1.2887 1.0447-2.3334 2.3334-2.3334s2.3333 1.0447 2.3333 2.3334c0 1.2886-1.0446 2.3333-2.3333 2.3333zm0-5.928c-1.9853 0-3.5946 1.6094-3.5946 3.5947 0 1.9852 1.6093 3.5946 3.5946 3.5946 1.9852 0 3.5946-1.6094 3.5946-3.5946 0-1.9853-1.6094-3.5946-3.5946-3.5946zm4.5766-.142c0 .4639-.3761.84-.84.84s-.84-.3761-.84-.84c0-.4638.3761-.84.84-.84s.84.3761.84.84z"/></g></svg>