<svg fill="none" height="32" viewBox="0 0 32 32" width="32" xmlns="http://www.w3.org/2000/svg"><rect fill="#e7e7f3" height="32" rx="4" width="32"/><path clip-rule="evenodd" d="m21.9631 9c.5708 0 1.0369.45214 1.0369 1.0088v11.9811c0 .5574-.4661 1.0101-1.0369 1.0101h-11.9297c-.57038 0-1.0334-.4527-1.0334-1.0101v-11.9811c0-.55672.46302-1.0088 1.0334-1.0088zm-1.0342 11.9298v-3.6646c0-1.7995-.3881-3.1829-2.4893-3.1829-1.01 0-1.6876.554-1.9648 1.0793h-.0283v-.9129h-1.9919v6.6812h2.0757v-3.3048c0-.8719.1648-1.7158 1.2454-1.7158 1.0639 0 1.0792.9966 1.0792 1.7716v3.249h2.074zm-8.8151-7.5945c.6637 0 1.2032-.5395 1.2032-1.2042 0-.664-.5395-1.2038-1.2032-1.2038-.6657 0-1.2036.5398-1.2036 1.2038 0 .6647.5379 1.2042 1.2036 1.2042zm-1.0388 7.5943h2.0773v-6.6809h-2.0773z" fill="#080b2d" fill-rule="evenodd"/></svg>