<svg fill="none" height="364" viewBox="0 0 644 364" width="644" xmlns="http://www.w3.org/2000/svg"><rect fill="#000824" height="364" rx="8" width="644"/><path d="m25.2188 42h3.2421l3.7735-5.4766v-.1406l-3.7735-5.4766h-3.2421l3.8515 5.4766v.1406zm0 72h3.2421l3.7735-5.477v-.14l-3.7735-5.477h-3.2421l3.8515 5.477v.14zm0 96h3.2421l3.7735-5.477v-.14l-3.7735-5.477h-3.2421l3.8515 5.477v.14z" fill="#0069ff"/><path d="m46.2812 42.1562c3.2969 0 5.1719-1.7656 5.1719-4.8437 0-2.3906-1.2187-3.75-3.3515-3.75-1.2188 0-1.875.5469-1.9922 1.6563h-.1953v-4.9376h-1.9297v11.7188c.7734.0938 1.5156.1562 2.2968.1562zm-.3671-4.8124c0-1.3594.6406-2.0235 1.914-2.0235 1.0469 0 1.6328.7188 1.6328 1.9922 0 1.9609-1.0312 3.0859-2.8515 3.0859-.2266 0-.461 0-.6953-.0078zm10.4687 1.0937c0-1.9922.586-3.1172 1.7656-3.1172.7969 0 1.1407.4375 1.1407 1.5078h1.914c0-2.1797-.8125-3.2656-2.4375-3.2656-1.375 0-2.0937.6953-2.1797 2.125h-.2578l-.2578-1.9687h-3.0859v1.6328h1.4765v5.0156h-1.789v1.6328h5.6875v-1.6328h-1.9766zm10.5625 3.7187c.6563 0 1.5078-.0312 2.5391-.2187l-.2032-1.7813c-.7265.1407-1.4218.2188-2.1484.2188-1.4375 0-2.375-.5938-2.6797-1.7188h5.3907c.0312-.3359.0468-.6796.0468-1.0703 0-2.6171-1.3203-4.0234-3.6328-4.0234-2.3984 0-3.7734 1.5781-3.7734 4.2813 0 2.7812 1.6094 4.3124 4.4609 4.3124zm-2.5781-4.8906c.1406-1.2578.8203-1.9609 1.9062-1.9609 1.1094 0 1.7735.6953 1.7735 1.9609zm12.0547 4.7344h2.4219l.9374-8.2812h-1.8515l-.5859 6.6015h-.1407l-.9609-6.6015h-1.5156l-.961 6.6015h-.1406l-.4219-6.6015h-1.8593l.7031 8.2812h2.5l.8906-6.375h.0937zm14.375 0h7.5156v-1.7109h-2.4922v-6.5703h-4.5547v1.7265h2.6328v4.8438h-3.1015zm3.9687-9.4766c.7422 0 1.2735-.5312 1.2735-1.2734s-.5313-1.2734-1.2735-1.2734-1.2734.5312-1.2734 1.2734.5312 1.2734 1.2734 1.2734zm10.4454 9.4766h1.93v-5.3906c0-1.9375-1-3.0469-2.75-3.0469-1.297 0-1.907.5469-2.039 1.6563h-.219l-.164-1.5h-1.735v8.2812h1.93v-4.3438c0-1.539.586-2.2968 1.742-2.2968.828 0 1.305.5625 1.305 1.5625zm7.211.1562c2.867 0 4.187-.8203 4.187-2.5859 0-1.2344-.734-1.8906-2.281-2.3047l-1.953-.539c-.484-.125-.703-.2578-.703-.6094 0-.5313.719-.7578 2.406-.7578.539 0 1.203.0312 2.11.1094l.203-1.75c-.805-.1016-1.524-.1563-2.266-.1563-3.07 0-4.484.8203-4.484 2.6172 0 1.1719.625 1.75 1.945 2.1094l2.336.664c.422.1172.617.2735.617.625 0 .5469-.633.7813-2.117.7813-.602 0-1.461-.086-2.68-.25l-.226 1.8125c.734.164 1.648.2343 2.906.2343zm11.594 0c.757 0 1.39-.0624 2.093-.1874l-.187-1.7657c-.719.0938-1.258.1563-1.75.1563-1.484 0-2.086-.5469-2.086-1.836v-3.0937h3.711v-1.7109h-3.711v-2.5h-1.922v2.5h-2.023v1.7109h2.023v3.25c0 2.4297 1.125 3.4765 3.852 3.4765zm9.39-.0781 2.844-.0781v-1.5625l-1.25-.1719v-3.2187c0-2.1875-1.391-3.3438-4.281-3.3828l-1.75-.0235-.157 1.7422 2.063.0547c1.508.0391 2.273.4687 2.273 1.4375v.1641c-.476-.1016-.992-.1485-1.64-.1485-2.367 0-3.711 1-3.711 2.8125 0 1.5703 1.008 2.4531 2.758 2.4531 1.484 0 2.429-.6328 2.562-1.9062h.18zm-.258-3.4843v.2031c0 .8593-.726 1.7578-2.171 1.7578-.821 0-1.266-.3594-1.266-1.0078 0-.6953.641-1.0547 1.844-1.0547.547 0 1.031 0 1.593.1016zm9.196 3.5624c.922 0 1.679-.0937 2.547-.3281l-.219-1.8828c-.703.2031-1.219.2969-1.703.2969-1.313 0-1.555-.4922-1.555-1.6406v-8.3204h-4.305v1.711h2.383v6.6875c0 2.4297.828 3.4765 2.852 3.4765zm9.375 0c.922 0 1.679-.0937 2.547-.3281l-.219-1.8828c-.703.2031-1.219.2969-1.703.2969-1.313 0-1.555-.4922-1.555-1.6406v-8.3204h-4.305v1.711h2.383v6.6875c0 2.4297.828 3.4765 2.852 3.4765zm16.797 0c1.226 0 2.007-.4843 2.156-1.4374h.203l.211 1.3593 1.68-.0781v-11.7188h-1.93v4.9376h-.188c-.171-1.1094-.828-1.6563-2.117-1.6563-2.054 0-3.234 1.5937-3.234 4.375 0 2.7187 1.18 4.2187 3.219 4.2187zm2.32-4.1093v.6328c0 1.0937-.617 1.6406-1.859 1.6406-1.11 0-1.688-.8047-1.688-2.3828 0-1.6641.609-2.6172 1.68-2.6172 1.242 0 1.867.75 1.867 2.2969zm7.852 4.1093c2.351 0 3.703-1.5624 3.703-4.2968s-1.352-4.2969-3.703-4.2969c-2.352 0-3.704 1.5625-3.704 4.2969s1.352 4.2968 3.704 4.2968zm0-1.7968c-1.063 0-1.672-.9063-1.672-2.5 0-1.6016.609-2.5 1.672-2.5 1.07 0 1.671.8984 1.671 2.5 0 1.5937-.601 2.5-1.671 2.5zm10.21 1.7968c.883 0 1.829-.0468 2.696-.2343l-.203-1.7657c-.743.125-1.524.2032-2.305.2032-1.727 0-2.695-.9063-2.695-2.5938 0-1.539.804-2.4062 2.187-2.4062.852 0 1.594.4218 2.055 1.1562l1.429-1.1172c-.507-1.1718-1.75-1.8359-3.421-1.8359-2.75 0-4.282 1.5781-4.282 4.2813 0 2.7812 1.641 4.3124 4.539 4.3124zm10.118 0c.757 0 1.39-.0624 2.093-.1874l-.187-1.7657c-.719.0938-1.258.1563-1.75.1563-1.484 0-2.086-.5469-2.086-1.836v-3.0937h3.711v-1.7109h-3.711v-2.5001h-1.922v2.5001h-2.023v1.7109h2.023v3.25c0 2.4297 1.125 3.4765 3.852 3.4765zm8.953 0c.922 0 1.679-.0937 2.547-.3281l-.219-1.8828c-.703.2031-1.219.2969-1.703.2969-1.313 0-1.555-.4922-1.555-1.6406v-8.3204h-4.305v1.711h2.383v6.6875c0 2.4297.828 3.4765 2.852 3.4765zm-161.3284 71.9998c1.2266 0 2.0078-.484 2.1563-1.437h.2031l.2109 1.359 1.6797-.078v-11.719h-1.9297v4.938h-.1875c-.1718-1.11-.8281-1.657-2.1172-1.657-2.0546 0-3.2343 1.594-3.2343 4.376 0 2.718 1.1797 4.218 3.2187 4.218zm2.3203-4.109v.633c0 1.093-.6171 1.64-1.8593 1.64-1.1094 0-1.6875-.804-1.6875-2.382 0-1.665.6093-2.618 1.6797-2.618 1.2421 0 1.8671.75 1.8671 2.297zm7.8516 4.109c2.3516 0 3.7031-1.562 3.7031-4.297 0-2.734-1.3515-4.297-3.7031-4.297s-3.7031 1.563-3.7031 4.297c0 2.735 1.3515 4.297 3.7031 4.297zm0-1.797c-1.0625 0-1.6719-.906-1.6719-2.5 0-1.601.6094-2.5 1.6719-2.5 1.0703 0 1.6719.899 1.6719 2.5 0 1.594-.6016 2.5-1.6719 2.5zm10.2109 1.797c.8828 0 1.8282-.047 2.6954-.234l-.2032-1.766c-.7422.125-1.5234.203-2.3047.203-1.7265 0-2.6953-.906-2.6953-2.593 0-1.539.8047-2.407 2.1875-2.407.8516 0 1.5938.422 2.0547 1.157l1.4297-1.118c-.5078-1.171-1.75-1.836-3.4219-1.836-2.75 0-4.2812 1.579-4.2812 4.282 0 2.781 1.6406 4.312 4.539 4.312zm10.1172 0c.7578 0 1.3906-.062 2.0938-.187l-.1875-1.766c-.7188.094-1.2578.156-1.75.156-1.4844 0-2.086-.547-2.086-1.836v-3.093h3.711v-1.711h-3.711v-2.5h-1.9218v2.5h-2.0235v1.711h2.0235v3.25c0 2.429 1.125 3.476 3.8515 3.476zm8.9532 0c.9218 0 1.6796-.094 2.5468-.328l-.2187-1.883c-.7031.203-1.2188.297-1.7031.297-1.3126 0-1.5547-.492-1.5547-1.64v-8.321h-4.3047v1.711h2.3828v6.688c0 2.429.8281 3.476 2.8516 3.476zm19.1872-.078 2.844-.078v-1.562l-1.25-.172v-3.219c0-2.188-1.391-3.344-4.281-3.383l-1.75-.023-.156 1.742 2.062.055c1.508.039 2.273.468 2.273 1.437v.164c-.476-.101-.992-.148-1.64-.148-2.367 0-3.7111 1-3.7111 2.812 0 1.57 1.0081 2.453 2.7581 2.453 1.484 0 2.429-.633 2.562-1.906h.18zm-.258-3.484v.203c0 .859-.726 1.758-2.171 1.758-.821 0-1.266-.36-1.266-1.008 0-.695.641-1.055 1.844-1.055.547 0 1.031 0 1.593.102zm7.071 3.562c1.101 0 1.89-.625 2.156-1.75h.203l.117 1.672 2.93-.078v-1.562l-1.141-.172v-6.547h-1.929v4.14c0 1.805-.555 2.5-1.633 2.5-.852 0-1.352-.531-1.352-1.484v-5.156h-1.929v5.469c0 1.89.937 2.968 2.578 2.968zm11.922 0c.757 0 1.39-.062 2.093-.187l-.187-1.766c-.719.094-1.258.156-1.75.156-1.484 0-2.086-.547-2.086-1.836v-3.093h3.711v-1.711h-3.711v-2.5h-1.922v2.5h-2.023v1.711h2.023v3.25c0 2.429 1.125 3.476 3.852 3.476zm9.32-.156h1.93v-5.391c0-1.937-1-3.047-2.75-3.047-1.297 0-1.907.547-2.039 1.657h-.188v-4.938h-1.93v11.719h1.93v-4.422c0-1.516.586-2.258 1.742-2.258.828 0 1.305.555 1.305 1.524zm13.711 0h7.515v-1.711h-2.492v-6.57h-4.554v1.726h2.632v4.844h-3.101zm3.969-9.477c.742 0 1.273-.531 1.273-1.273s-.531-1.273-1.273-1.273c-.743 0-1.274.531-1.274 1.273s.531 1.273 1.274 1.273zm10.445 9.477h1.93v-5.391c0-1.937-1-3.047-2.75-3.047-1.297 0-1.907.547-2.039 1.657h-.219l-.164-1.5h-1.735v8.281h1.93v-4.344c0-1.539.586-2.297 1.742-2.297.828 0 1.305.563 1.305 1.563zm4.336 0h7.515v-1.711h-2.492v-6.57h-4.554v1.726h2.632v4.844h-3.101zm3.969-9.477c.742 0 1.273-.531 1.273-1.273s-.531-1.273-1.273-1.273c-.743 0-1.274.531-1.274 1.273s.531 1.273 1.274 1.273zm10.5 9.633c.757 0 1.39-.062 2.093-.187l-.187-1.766c-.719.094-1.258.156-1.75.156-1.484 0-2.086-.547-2.086-1.836v-3.093h3.711v-1.711h-3.711v-2.5h-1.922v2.5h-2.023v1.711h2.023v3.25c0 2.429 1.125 3.476 3.852 3.476zm103.046 21.977 1.586-1.235-1.734-1.914 2.5-.695-.641-1.891-2.382 1.008.156-2.594h-2l.18 2.579-2.399-.993-.648 1.891 2.492.664-1.727 1.945 1.586 1.235 1.5-2.235zm9.376 0 1.585-1.235-1.734-1.914 2.5-.695-.641-1.891-2.382 1.008.156-2.594h-2l.18 2.579-2.399-.993-.648 1.891 2.492.664-1.727 1.945 1.586 1.235 1.5-2.235zm9.374 0 1.586-1.235-1.734-1.914 2.5-.695-.641-1.891-2.382 1.008.156-2.594h-2l.18 2.579-2.399-.993-.648 1.891 2.492.664-1.727 1.945 1.586 1.235 1.5-2.235zm9.376 0 1.585-1.235-1.734-1.914 2.5-.695-.641-1.891-2.382 1.008.156-2.594h-2l.18 2.579-2.399-.993-.648 1.891 2.492.664-1.727 1.945 1.586 1.235 1.5-2.235zm9.374 0 1.586-1.235-1.734-1.914 2.5-.695-.641-1.891-2.382 1.008.156-2.594h-2l.18 2.579-2.399-.993-.648 1.891 2.492.664-1.727 1.945 1.586 1.235 1.5-2.235zm9.376 0 1.585-1.235-1.734-1.914 2.5-.695-.641-1.891-2.382 1.008.156-2.594h-2l.18 2.579-2.399-.993-.648 1.891 2.492.664-1.727 1.945 1.586 1.235 1.5-2.235zm9.374 0 1.586-1.235-1.734-1.914 2.5-.695-.641-1.891-2.382 1.008.156-2.594h-2l.18 2.579-2.399-.993-.648 1.891 2.492.664-1.727 1.945 1.586 1.235 1.5-2.235zm9.376 0 1.585-1.235-1.734-1.914 2.5-.695-.641-1.891-2.382 1.008.156-2.594h-2l.18 2.579-2.399-.993-.648 1.891 2.492.664-1.727 1.945 1.586 1.235 1.5-2.235zm9.374 0 1.586-1.235-1.734-1.914 2.5-.695-.641-1.891-2.382 1.008.156-2.594h-2l.18 2.579-2.399-.993-.648 1.891 2.492.664-1.727 1.945 1.586 1.235 1.5-2.235zm9.376 0 1.585-1.235-1.734-1.914 2.5-.695-.641-1.891-2.382 1.008.156-2.594h-2l.18 2.579-2.399-.993-.648 1.891 2.492.664-1.727 1.945 1.586 1.235 1.5-2.235zm-321.0474 74.023c1.2266 0 2.0078-.484 2.1563-1.437h.2031l.2109 1.359 1.6797-.078v-11.719h-1.9297v4.938h-.1875c-.1718-1.11-.8281-1.657-2.1172-1.657-2.0546 0-3.2343 1.594-3.2343 4.376 0 2.718 1.1797 4.218 3.2187 4.218zm2.3203-4.109v.633c0 1.093-.6171 1.64-1.8593 1.64-1.1094 0-1.6875-.804-1.6875-2.382 0-1.665.6093-2.618 1.6797-2.618 1.2421 0 1.8671.75 1.8671 2.297zm7.8516 4.109c2.3516 0 3.7031-1.562 3.7031-4.297 0-2.734-1.3515-4.297-3.7031-4.297s-3.7031 1.563-3.7031 4.297c0 2.735 1.3515 4.297 3.7031 4.297zm0-1.797c-1.0625 0-1.6719-.906-1.6719-2.5 0-1.601.6094-2.5 1.6719-2.5 1.0703 0 1.6719.899 1.6719 2.5 0 1.594-.6016 2.5-1.6719 2.5zm10.2109 1.797c.8828 0 1.8282-.047 2.6954-.234l-.2032-1.766c-.7422.125-1.5234.203-2.3047.203-1.7265 0-2.6953-.906-2.6953-2.593 0-1.539.8047-2.407 2.1875-2.407.8516 0 1.5938.422 2.0547 1.157l1.4297-1.118c-.5078-1.171-1.75-1.836-3.4219-1.836-2.75 0-4.2812 1.579-4.2812 4.282 0 2.781 1.6406 4.312 4.539 4.312zm10.1172 0c.7578 0 1.3906-.062 2.0938-.187l-.1875-1.766c-.7188.094-1.2578.156-1.75.156-1.4844 0-2.086-.547-2.086-1.836v-3.093h3.711v-1.711h-3.711v-2.5h-1.9218v2.5h-2.0235v1.711h2.0235v3.25c0 2.429 1.125 3.476 3.8515 3.476zm8.9532 0c.9218 0 1.6796-.094 2.5468-.328l-.2187-1.883c-.7031.203-1.2188.297-1.7031.297-1.3126 0-1.5547-.492-1.5547-1.64v-8.321h-4.3047v1.711h2.3828v6.688c0 2.429.8281 3.476 2.8516 3.476zm18.4292 0c.883 0 1.829-.047 2.696-.234l-.203-1.766c-.743.125-1.524.203-2.305.203-1.727 0-2.695-.906-2.695-2.593 0-1.539.804-2.407 2.187-2.407.852 0 1.594.422 2.055 1.157l1.43-1.118c-.508-1.171-1.75-1.836-3.422-1.836-2.75 0-4.2816 1.579-4.2816 4.282 0 2.781 1.6406 4.312 4.5386 4.312zm8.539 0c2.352 0 3.704-1.562 3.704-4.297 0-2.734-1.352-4.297-3.704-4.297-2.351 0-3.703 1.563-3.703 4.297 0 2.735 1.352 4.297 3.703 4.297zm0-1.797c-1.062 0-1.671-.906-1.671-2.5 0-1.601.609-2.5 1.671-2.5 1.071 0 1.672.899 1.672 2.5 0 1.594-.601 2.5-1.672 2.5zm11.36 1.641h1.906v-6.484c0-1.375-.492-1.954-1.617-1.954-.828 0-1.32.485-1.391 1.188h-.172c-.148-.797-.609-1.188-1.281-1.188-.781 0-1.234.407-1.32 1.188h-.164l-.11-1.031h-1.726v8.281h1.914v-5.75c0-.672.219-1.008.672-1.008.375 0 .562.235.562.703v6.055h1.508v-5.75c0-.672.219-1.008.664-1.008.375 0 .555.281.555.86zm8.187.156c2.047 0 3.219-1.5 3.219-4.218 0-2.782-1.172-4.376-3.234-4.376-1.282 0-1.946.547-2.117 1.657h-.211l-.133-1.5h-1.774v11.875h1.93v-4.875h.188c.148.953.921 1.437 2.132 1.437zm-2.32-3.476v-1.219c0-1.438.586-2.141 1.75-2.141 1.149 0 1.797.953 1.797 2.618 0 1.632-.609 2.46-1.805 2.46-1.172 0-1.742-.57-1.742-1.718zm9.93 3.476c1.101 0 1.89-.625 2.156-1.75h.203l.117 1.672 2.93-.078v-1.562l-1.141-.172v-6.547h-1.929v4.14c0 1.805-.555 2.5-1.633 2.5-.852 0-1.352-.531-1.352-1.484v-5.156h-1.929v5.469c0 1.89.937 2.968 2.578 2.968zm11.922 0c.757 0 1.39-.062 2.093-.187l-.187-1.766c-.719.094-1.258.156-1.75.156-1.485 0-2.086-.547-2.086-1.836v-3.093h3.711v-1.711h-3.711v-2.5h-1.922v2.5h-2.023v1.711h2.023v3.25c0 2.429 1.125 3.476 3.852 3.476zm8.554 0c.657 0 1.508-.031 2.539-.218l-.203-1.782c-.726.141-1.422.219-2.148.219-1.438 0-2.375-.594-2.68-1.719h5.391c.031-.336.047-.679.047-1.07 0-2.617-1.321-4.024-3.633-4.024-2.399 0-3.774 1.579-3.774 4.282 0 2.781 1.61 4.312 4.461 4.312zm-2.578-4.89c.141-1.258.821-1.961 1.906-1.961 1.11 0 1.774.695 1.774 1.961zm19.774 4.89c1.226 0 2.007-.484 2.156-1.437h.203l.211 1.359 1.68-.078v-11.719h-1.93v4.938h-.188c-.171-1.11-.828-1.657-2.117-1.657-2.054 0-3.234 1.594-3.234 4.376 0 2.718 1.18 4.218 3.219 4.218zm2.32-4.109v.633c0 1.093-.617 1.64-1.859 1.64-1.11 0-1.688-.804-1.688-2.382 0-1.665.609-2.618 1.68-2.618 1.242 0 1.867.75 1.867 2.297zm7.422.391c0-1.993.586-3.118 1.765-3.118.797 0 1.141.438 1.141 1.508h1.914c0-2.18-.812-3.266-2.437-3.266-1.375 0-2.094.696-2.18 2.126h-.258l-.258-1.969h-3.086v1.633h1.477v5.015h-1.789v1.633h5.687v-1.633h-1.976zm9.805 3.718c2.351 0 3.703-1.562 3.703-4.297 0-2.734-1.352-4.297-3.703-4.297-2.352 0-3.704 1.563-3.704 4.297 0 2.735 1.352 4.297 3.704 4.297zm0-1.797c-1.063 0-1.672-.906-1.672-2.5 0-1.601.609-2.5 1.672-2.5 1.07 0 1.671.899 1.671 2.5 0 1.594-.601 2.5-1.671 2.5zm10.171 1.797c2.047 0 3.219-1.5 3.219-4.218 0-2.782-1.172-4.376-3.234-4.376-1.282 0-1.946.547-2.117 1.657h-.211l-.133-1.5h-1.774v11.875h1.93v-4.875h.188c.148.953.921 1.437 2.132 1.437zm-2.32-3.476v-1.219c0-1.438.586-2.141 1.75-2.141 1.149 0 1.797.953 1.797 2.618 0 1.632-.609 2.46-1.805 2.46-1.172 0-1.742-.57-1.742-1.718zm12.055 3.476c.922 0 1.679-.094 2.547-.328l-.219-1.883c-.703.203-1.219.297-1.703.297-1.313 0-1.555-.492-1.555-1.64v-8.321h-4.305v1.711h2.383v6.688c0 2.429.828 3.476 2.852 3.476zm8.976 0c.657 0 1.508-.031 2.539-.218l-.203-1.782c-.726.141-1.422.219-2.148.219-1.438 0-2.375-.594-2.68-1.719h5.391c.031-.336.047-.679.047-1.07 0-2.617-1.321-4.024-3.633-4.024-2.399 0-3.774 1.579-3.774 4.282 0 2.781 1.61 4.312 4.461 4.312zm-2.578-4.89c.141-1.258.82-1.961 1.906-1.961 1.11 0 1.774.695 1.774 1.961zm12.774 4.89c.757 0 1.39-.062 2.093-.187l-.187-1.766c-.719.094-1.258.156-1.75.156-1.484 0-2.086-.547-2.086-1.836v-3.093h3.711v-1.711h-3.711v-2.5h-1.922v2.5h-2.023v1.711h2.023v3.25c0 2.429 1.125 3.476 3.852 3.476zm18.007 0c.883 0 1.829-.047 2.696-.234l-.203-1.766c-.743.125-1.524.203-2.305.203-1.727 0-2.695-.906-2.695-2.593 0-1.539.804-2.407 2.187-2.407.852 0 1.594.422 2.055 1.157l1.43-1.118c-.508-1.171-1.75-1.836-3.422-1.836-2.75 0-4.282 1.579-4.282 4.282 0 2.781 1.641 4.312 4.539 4.312zm8.11-3.718c0-1.993.586-3.118 1.765-3.118.797 0 1.141.438 1.141 1.508h1.914c0-2.18-.812-3.266-2.437-3.266-1.375 0-2.094.696-2.18 2.126h-.258l-.258-1.969h-3.086v1.633h1.477v5.015h-1.789v1.633h5.687v-1.633h-1.976zm10.562 3.718c.657 0 1.508-.031 2.539-.218l-.203-1.782c-.726.141-1.422.219-2.148.219-1.438 0-2.375-.594-2.68-1.719h5.391c.031-.336.047-.679.047-1.07 0-2.617-1.321-4.024-3.633-4.024-2.399 0-3.774 1.579-3.774 4.282 0 2.781 1.61 4.312 4.461 4.312zm-2.578-4.89c.141-1.258.821-1.961 1.906-1.961 1.11 0 1.774.695 1.774 1.961zm12.789 4.812 2.844-.078v-1.562l-1.25-.172v-3.219c0-2.188-1.391-3.344-4.281-3.383l-1.75-.023-.157 1.742 2.063.055c1.508.039 2.273.468 2.273 1.437v.164c-.476-.101-.992-.148-1.64-.148-2.367 0-3.711 1-3.711 2.812 0 1.57 1.008 2.453 2.758 2.453 1.484 0 2.429-.633 2.562-1.906h.18zm-.258-3.484v.203c0 .859-.726 1.758-2.171 1.758-.821 0-1.266-.36-1.266-1.008 0-.695.641-1.055 1.844-1.055.547 0 1.031 0 1.593.102zm9.618 3.562c.757 0 1.39-.062 2.093-.187l-.187-1.766c-.719.094-1.258.156-1.75.156-1.484 0-2.086-.547-2.086-1.836v-3.093h3.711v-1.711h-3.711v-2.5h-1.922v2.5h-2.023v1.711h2.023v3.25c0 2.429 1.125 3.476 3.852 3.476zm8.554 0c.657 0 1.508-.031 2.539-.218l-.203-1.782c-.726.141-1.422.219-2.148.219-1.438 0-2.375-.594-2.68-1.719h5.391c.031-.336.047-.679.047-1.07 0-2.617-1.321-4.024-3.633-4.024-2.399 0-3.774 1.579-3.774 4.282 0 2.781 1.61 4.312 4.461 4.312zm-2.578-4.89c.141-1.258.82-1.961 1.906-1.961 1.11 0 1.774.695 1.774 1.961zm19.93 4.89c2.867 0 4.187-.82 4.187-2.586 0-1.234-.734-1.89-2.281-2.304l-1.953-.539c-.484-.125-.703-.258-.703-.61 0-.531.719-.758 2.406-.758.539 0 1.203.032 2.11.11l.203-1.75c-.805-.102-1.524-.157-2.266-.157-3.07 0-4.484.821-4.484 2.618 0 1.172.625 1.75 1.945 2.109l2.336.664c.422.117.617.274.617.625 0 .547-.633.781-2.117.781-.602 0-1.461-.086-2.68-.25l-.226 1.813c.734.164 1.648.234 2.906.234zm11.539-.156h1.93v-5.391c0-1.937-1-3.047-2.75-3.047-1.297 0-1.907.547-2.039 1.657h-.219l-.164-1.5h-1.735v8.281h1.93v-4.344c0-1.539.586-2.297 1.742-2.297.828 0 1.305.563 1.305 1.563zm9.445.078 2.844-.078v-1.562l-1.25-.172v-3.219c0-2.188-1.391-3.344-4.281-3.383l-1.75-.023-.157 1.742 2.063.055c1.508.039 2.273.468 2.273 1.437v.164c-.476-.101-.992-.148-1.64-.148-2.367 0-3.711 1-3.711 2.812 0 1.57 1.008 2.453 2.758 2.453 1.484 0 2.429-.633 2.562-1.906h.18zm-.258-3.484v.203c0 .859-.726 1.758-2.171 1.758-.821 0-1.266-.36-1.266-1.008 0-.695.641-1.055 1.844-1.055.547 0 1.031 0 1.593.102zm4.602 3.406h6.844v-1.641h-4.563l4.407-5v-1.64h-6.688v1.64h4.484l-4.484 5zm9.375 0h6.844v-1.641h-4.563l4.406-5v-1.64h-6.687v1.64h4.484l-4.484 5zm8.633 3.75 1.484-.156c2.281-.242 3.5-1.352 4.446-4.328l2.351-7.547h-2.031l-1.899 6.703h-.164l-2.312-6.703h-2.031l2.984 8.281h1c-.555 1.227-1.313 1.758-2.531 1.898l-1.375.157zm9.57-8.43h7.969v-1.718h-7.969zm12.563 4.836c1.226 0 2.007-.484 2.156-1.437h.203l.211 1.359 1.68-.078v-11.719h-1.93v4.938h-.188c-.171-1.11-.828-1.657-2.117-1.657-2.054 0-3.234 1.594-3.234 4.376 0 2.718 1.18 4.218 3.219 4.218zm2.32-4.109v.633c0 1.093-.617 1.64-1.859 1.64-1.11 0-1.688-.804-1.688-2.382 0-1.665.609-2.618 1.68-2.618 1.242 0 1.867.75 1.867 2.297zm7.851 4.109c2.352 0 3.704-1.562 3.704-4.297 0-2.734-1.352-4.297-3.704-4.297-2.351 0-3.703 1.563-3.703 4.297 0 2.735 1.352 4.297 3.703 4.297zm0-1.797c-1.062 0-1.671-.906-1.671-2.5 0-1.601.609-2.5 1.671-2.5 1.071 0 1.672.899 1.672 2.5 0 1.594-.601 2.5-1.672 2.5zm10.532 1.797c.922 0 1.679-.094 2.547-.328l-.219-1.883c-.703.203-1.219.297-1.703.297-1.313 0-1.555-.492-1.555-1.64v-8.321h-4.305v1.711h2.383v6.688c0 2.429.828 3.476 2.852 3.476zm9.015 0c2.047 0 3.219-1.5 3.219-4.218 0-2.782-1.172-4.376-3.234-4.376-1.282 0-1.946.547-2.117 1.657h-.211l-.133-1.5h-1.774v11.875h1.93v-4.875h.188c.148.953.921 1.437 2.132 1.437zm-2.32-3.476v-1.219c0-1.438.586-2.141 1.75-2.141 1.149 0 1.797.953 1.797 2.618 0 1.632-.609 2.46-1.805 2.46-1.172 0-1.742-.57-1.742-1.718zm12.422 3.32h1.93v-5.391c0-1.937-1-3.047-2.75-3.047-1.297 0-1.907.547-2.039 1.657h-.188v-4.938h-1.93v11.719h1.93v-4.422c0-1.516.586-2.258 1.742-2.258.828 0 1.305.555 1.305 1.524zm4.336 0h7.515v-1.711h-2.492v-6.57h-4.554v1.726h2.632v4.844h-3.101zm3.969-9.477c.742 0 1.273-.531 1.273-1.273s-.531-1.273-1.273-1.273c-.743 0-1.274.531-1.274 1.273s.531 1.273 1.274 1.273zm10.445 9.477h1.93v-5.391c0-1.937-1-3.047-2.75-3.047-1.297 0-1.907.547-2.039 1.657h-.219l-.164-1.5h-1.735v8.281h1.93v-4.344c0-1.539.586-2.297 1.742-2.297.828 0 1.305.563 1.305 1.563z" fill="#fff"/><g fill="#c0c2d3"><path d="m25.1719 66h7.5156v-1.7109h-2.4922v-6.5703h-4.5547v1.7265h2.6328v4.8438h-3.1015zm3.9687-9.4766c.7422 0 1.2735-.5312 1.2735-1.2734s-.5313-1.2734-1.2735-1.2734-1.2734.5312-1.2734 1.2734.5312 1.2734 1.2734 1.2734zm10.4453 9.4766h1.9297v-5.3906c0-1.9375-1-3.0469-2.75-3.0469-1.2968 0-1.9062.5469-2.039 1.6563h-.2188l-.164-1.5h-1.7344v8.2812h1.9297v-4.3438c0-1.539.5859-2.2968 1.7421-2.2968.8282 0 1.3047.5625 1.3047 1.5625zm7.211.1562c2.8672 0 4.1875-.8203 4.1875-2.5859 0-1.2344-.7344-1.8906-2.2813-2.3047l-1.9531-.539c-.4844-.125-.7031-.2578-.7031-.6094 0-.5313.7187-.7578 2.4062-.7578.5391 0 1.2031.0312 2.1094.1094l.2031-1.75c-.8047-.1016-1.5234-.1563-2.2656-.1563-3.0703 0-4.4844.8203-4.4844 2.6172 0 1.1719.625 1.75 1.9453 2.1094l2.336.664c.4219.1172.6172.2735.6172.625 0 .5469-.6329.7813-2.1172.7813-.6016 0-1.461-.086-2.6797-.25l-.2266 1.8125c.7344.164 1.6485.2343 2.9063.2343zm11.5937 0c.7578 0 1.3906-.0624 2.0938-.1874l-.1875-1.7657c-.7188.0938-1.2578.1563-1.75.1563-1.4844 0-2.086-.5469-2.086-1.836v-3.0937h3.711v-1.7109h-3.711v-2.5h-1.9218v2.5h-2.0235v1.7109h2.0235v3.25c0 2.4297 1.125 3.4765 3.8515 3.4765zm9.3906-.0781 2.8438-.0781v-1.5625l-1.25-.1719v-3.2187c0-2.1875-1.3906-3.3438-4.2812-3.3828l-1.75-.0235-.1563 1.7422 2.0625.0547c1.5078.0391 2.2734.4687 2.2734 1.4375v.1641c-.4765-.1016-.9922-.1485-1.6406-.1485-2.3672 0-3.7109 1-3.7109 2.8125 0 1.5703 1.0078 2.4531 2.7578 2.4531 1.4844 0 2.4297-.6328 2.5625-1.9062h.1797zm-.2578-3.4843v.2031c0 .8593-.7265 1.7578-2.1718 1.7578-.8204 0-1.2657-.3594-1.2657-1.0078 0-.6953.6407-1.0547 1.8438-1.0547.5469 0 1.0312 0 1.5937.1016zm9.1954 3.5624c.9218 0 1.6796-.0937 2.5468-.3281l-.2187-1.8828c-.7031.2031-1.2188.2969-1.7031.2969-1.3126 0-1.5547-.4922-1.5547-1.6406v-8.3204h-4.3047v1.711h2.3828v6.6875c0 2.4297.8281 3.4765 2.8516 3.4765zm9.375 0c.9218 0 1.6796-.0937 2.5468-.3281l-.2187-1.8828c-.7031.2031-1.2188.2969-1.7031.2969-1.3126 0-1.5547-.4922-1.5547-1.6406v-8.3204h-4.3047v1.711h2.3828v6.6875c0 2.4297.8281 3.4765 2.8516 3.4765zm16.9532 0c2.867 0 4.187-.8203 4.187-2.5859 0-1.2344-.734-1.8906-2.281-2.3047l-1.953-.539c-.484-.125-.703-.2578-.703-.6094 0-.5313.719-.7578 2.406-.7578.539 0 1.203.0312 2.109.1094l.204-1.75c-.805-.1016-1.524-.1563-2.266-.1563-3.07 0-4.484.8203-4.484 2.6172 0 1.1719.625 1.75 1.945 2.1094l2.336.664c.422.1172.617.2735.617.625 0 .5469-.633.7813-2.117.7813-.602 0-1.461-.086-2.68-.25l-.226 1.8125c.734.164 1.648.2343 2.906.2343zm9.047 0c1.101 0 1.89-.625 2.156-1.75h.203l.117 1.6719 2.93-.0781v-1.5625l-1.141-.1719v-6.5468h-1.929v4.1406c0 1.8047-.555 2.5-1.633 2.5-.852 0-1.352-.5313-1.352-1.4844v-5.1562h-1.929v5.4687c0 1.8906.937 2.9687 2.578 2.9687zm11.179 0c.883 0 1.829-.0468 2.696-.2343l-.203-1.7657c-.743.125-1.524.2032-2.305.2032-1.727 0-2.695-.9063-2.695-2.5938 0-1.539.804-2.4062 2.187-2.4062.852 0 1.594.4218 2.055 1.1562l1.43-1.1172c-.508-1.1718-1.75-1.8359-3.422-1.8359-2.75 0-4.282 1.5781-4.282 4.2813 0 2.7812 1.641 4.3124 4.539 4.3124zm9.375 0c.883 0 1.829-.0468 2.696-.2343l-.203-1.7657c-.743.125-1.524.2032-2.305.2032-1.727 0-2.695-.9063-2.695-2.5938 0-1.539.804-2.4062 2.187-2.4062.852 0 1.594.4218 2.055 1.1562l1.429-1.1172c-.507-1.1718-1.75-1.8359-3.421-1.8359-2.75 0-4.282 1.5781-4.282 4.2813 0 2.7812 1.641 4.3124 4.539 4.3124zm9.297 0c.657 0 1.508-.0312 2.539-.2187l-.203-1.7813c-.726.1407-1.422.2188-2.148.2188-1.438 0-2.375-.5938-2.68-1.7188h5.391c.031-.3359.047-.6796.047-1.0703 0-2.6171-1.321-4.0234-3.633-4.0234-2.399 0-3.774 1.5781-3.774 4.2813 0 2.7812 1.61 4.3124 4.461 4.3124zm-2.578-4.8906c.141-1.2578.821-1.9609 1.906-1.9609 1.11 0 1.774.6953 1.774 1.9609zm10.555 4.8906c2.867 0 4.187-.8203 4.187-2.5859 0-1.2344-.734-1.8906-2.281-2.3047l-1.953-.539c-.484-.125-.703-.2578-.703-.6094 0-.5313.719-.7578 2.406-.7578.539 0 1.203.0312 2.11.1094l.203-1.75c-.805-.1016-1.524-.1563-2.266-.1563-3.07 0-4.484.8203-4.484 2.6172 0 1.1719.625 1.75 1.945 2.1094l2.336.664c.422.1172.617.2735.617.625 0 .5469-.633.7813-2.117.7813-.602 0-1.461-.086-2.68-.25l-.226 1.8125c.734.164 1.648.2343 2.906.2343zm9.375 0c2.867 0 4.187-.8203 4.187-2.5859 0-1.2344-.734-1.8906-2.281-2.3047l-1.953-.539c-.484-.125-.703-.2578-.703-.6094 0-.5313.719-.7578 2.406-.7578.539 0 1.203.0312 2.109.1094l.204-1.75c-.805-.1016-1.524-.1563-2.266-.1563-3.07 0-4.484.8203-4.484 2.6172 0 1.1719.625 1.75 1.945 2.1094l2.336.664c.422.1172.617.2735.617.625 0 .5469-.633.7813-2.117.7813-.602 0-1.461-.086-2.68-.25l-.226 1.8125c.734.164 1.648.2343 2.906.2343zm8.336-.1562h1.922v-4.9141h3.336v-1.625h-3.336v-1.1171c0-1.625.687-2.4219 2.086-2.4219.484 0 .976.0312 1.656.1093l.187-1.75c-.601-.1093-1.14-.1562-1.796-.1562-2.711 0-4.055 1.4219-4.055 4.2969v1.039h-2.555v1.625h2.555zm10.086.1562c1.101 0 1.89-.625 2.156-1.75h.203l.117 1.6719 2.93-.0781v-1.5625l-1.141-.1719v-6.5468h-1.929v4.1406c0 1.8047-.555 2.5-1.633 2.5-.852 0-1.352-.5313-1.352-1.4844v-5.1562h-1.929v5.4687c0 1.8906.937 2.9687 2.578 2.9687zm11.5 0c.922 0 1.679-.0937 2.547-.3281l-.219-1.8828c-.703.2031-1.219.2969-1.703.2969-1.313 0-1.555-.4922-1.555-1.6406v-8.3204h-4.305v1.711h2.383v6.6875c0 2.4297.828 3.4765 2.852 3.4765zm7.297-4.1874h1.812l.156-7.1407h-2.093zm.922 4.1874c.726 0 1.312-.5937 1.312-1.3124 0-.7344-.586-1.3204-1.312-1.3204-.727 0-1.313.586-1.313 1.3204 0 .7187.586 1.3124 1.313 1.3124zm-172.2661 71.8438h2.7656c3.4453 0 5.1563-1.789 5.1563-5.391 0-3.82-1.711-5.703-5.1563-5.703h-2.7656zm1.8593-1.781v-7.539h.9063c2.1328 0 3.2031 1.328 3.2031 3.929 0 2.383-1.0703 3.61-3.2031 3.61zm7.5157 1.781h7.5156v-1.711h-2.4922v-6.57h-4.5547v1.726h2.6328v4.844h-3.1015zm3.9687-9.477c.7422 0 1.2735-.531 1.2735-1.273s-.5313-1.273-1.2735-1.273-1.2734.531-1.2734 1.273.5312 1.273 1.2734 1.273zm8.125 9.633c1.2266 0 2.0078-.484 2.1563-1.437h.1484v.797c0 1.578-.6562 2.382-2.1953 2.429l-2.6562.078.0781 1.711 2.4219-.078c2.9921-.101 4.2968-1.437 4.2968-4.39v-7.547h-1.7734l-.1328 1.5h-.211c-.1718-1.11-.8281-1.657-2.1172-1.657-2.0546 0-3.2343 1.594-3.2343 4.376 0 2.718 1.1797 4.218 3.2187 4.218zm2.3203-3.476c0 1.093-.5703 1.64-1.7421 1.64-1.1876 0-1.8047-.804-1.8047-2.382 0-1.665.6484-2.618 1.7968-2.618 1.1641 0 1.75.703 1.75 2.141zm4.336 3.32h7.5156v-1.711h-2.4922v-6.57h-4.5547v1.726h2.6328v4.844h-3.1015zm3.9687-9.477c.7422 0 1.2735-.531 1.2735-1.273s-.5313-1.273-1.2735-1.273-1.2734.531-1.2734 1.273.5312 1.273 1.2734 1.273zm10.5 9.633c.7578 0 1.3906-.062 2.0938-.187l-.1875-1.766c-.7188.094-1.2578.156-1.75.156-1.4844 0-2.086-.547-2.086-1.836v-3.093h3.711v-1.711h-3.711v-2.5h-1.9218v2.5h-2.0235v1.711h2.0235v3.25c0 2.429 1.125 3.476 3.8515 3.476zm9.3906-.078 2.8438-.078v-1.562l-1.25-.172v-3.219c0-2.188-1.3906-3.344-4.2812-3.383l-1.75-.023-.1563 1.742 2.0625.055c1.5078.039 2.2734.468 2.2734 1.437v.164c-.4765-.101-.9922-.148-1.6406-.148-2.3672 0-3.7109 1-3.7109 2.812 0 1.57 1.0078 2.453 2.7578 2.453 1.4844 0 2.4297-.633 2.5625-1.906h.1797zm-.2578-3.484v.203c0 .859-.7265 1.758-2.1718 1.758-.8204 0-1.2657-.36-1.2657-1.008 0-.695.6407-1.055 1.8438-1.055.5469 0 1.0312 0 1.5937.102zm9.1954 3.562c.9218 0 1.6796-.094 2.5468-.328l-.2187-1.883c-.7031.203-1.2188.297-1.7031.297-1.3126 0-1.5547-.492-1.5547-1.64v-8.321h-4.3047v1.711h2.3828v6.688c0 2.429.8281 3.476 2.8516 3.476zm8.2187 0c2.7734 0 4.1719-1.859 4.1719-5.625 0-3.859-1.3985-5.781-4.1719-5.781s-4.1719 1.922-4.1719 5.781c0 3.766 1.3985 5.625 4.1719 5.625zm0-1.758c-1.4766 0-2.2187-1.281-2.2187-3.867 0-2.695.7421-4.031 2.2187-4.031s2.2187 1.336 2.2187 4.031c0 2.586-.7421 3.867-2.2187 3.867zm10.2105 1.758c.883 0 1.829-.047 2.696-.234l-.203-1.766c-.743.125-1.524.203-2.305.203-1.727 0-2.695-.906-2.695-2.593 0-1.539.804-2.407 2.187-2.407.852 0 1.594.422 2.055 1.157l1.43-1.118c-.508-1.171-1.75-1.836-3.422-1.836-2.75 0-4.2816 1.579-4.2816 4.282 0 2.781 1.6406 4.312 4.5386 4.312zm9.297 0c.657 0 1.508-.031 2.539-.218l-.203-1.782c-.726.141-1.422.219-2.148.219-1.438 0-2.375-.594-2.68-1.719h5.391c.031-.336.047-.679.047-1.07 0-2.617-1.321-4.024-3.633-4.024-2.399 0-3.774 1.579-3.774 4.282 0 2.781 1.61 4.312 4.461 4.312zm-2.578-4.89c.141-1.258.82-1.961 1.906-1.961 1.11 0 1.774.695 1.774 1.961zm12.789 4.812 2.844-.078v-1.562l-1.25-.172v-3.219c0-2.188-1.391-3.344-4.281-3.383l-1.75-.023-.156 1.742 2.062.055c1.508.039 2.273.468 2.273 1.437v.164c-.476-.101-.992-.148-1.64-.148-2.367 0-3.711 1-3.711 2.812 0 1.57 1.008 2.453 2.758 2.453 1.484 0 2.429-.633 2.562-1.906h.18zm-.258-3.484v.203c0 .859-.726 1.758-2.171 1.758-.821 0-1.266-.36-1.266-1.008 0-.695.641-1.055 1.844-1.055.547 0 1.031 0 1.593.102zm9.563 3.406h1.93v-5.391c0-1.937-1-3.047-2.75-3.047-1.297 0-1.907.547-2.039 1.657h-.219l-.164-1.5h-1.735v8.281h1.93v-4.344c0-1.539.586-2.297 1.742-2.297.828 0 1.305.563 1.305 1.563zm18.82.078 2.844-.078v-1.562l-1.25-.172v-3.219c0-2.188-1.391-3.344-4.281-3.383l-1.75-.023-.157 1.742 2.063.055c1.508.039 2.273.468 2.273 1.437v.164c-.476-.101-.992-.148-1.64-.148-2.367 0-3.711 1-3.711 2.812 0 1.57 1.008 2.453 2.758 2.453 1.484 0 2.429-.633 2.562-1.906h.18zm-.258-3.484v.203c0 .859-.726 1.758-2.171 1.758-.821 0-1.266-.36-1.266-1.008 0-.695.641-1.055 1.844-1.055.547 0 1.031 0 1.593.102zm8.875 3.562c.883 0 1.829-.047 2.696-.234l-.203-1.766c-.743.125-1.524.203-2.305.203-1.727 0-2.695-.906-2.695-2.593 0-1.539.804-2.407 2.187-2.407.852 0 1.594.422 2.055 1.157l1.43-1.118c-.508-1.171-1.75-1.836-3.422-1.836-2.75 0-4.282 1.579-4.282 4.282 0 2.781 1.641 4.312 4.539 4.312zm9.375 0c.883 0 1.829-.047 2.696-.234l-.203-1.766c-.743.125-1.524.203-2.305.203-1.727 0-2.695-.906-2.695-2.593 0-1.539.804-2.407 2.187-2.407.852 0 1.594.422 2.055 1.157l1.429-1.118c-.507-1.171-1.75-1.836-3.421-1.836-2.75 0-4.282 1.579-4.282 4.282 0 2.781 1.641 4.312 4.539 4.312zm9.297 0c.657 0 1.508-.031 2.539-.218l-.203-1.782c-.726.141-1.422.219-2.148.219-1.438 0-2.375-.594-2.68-1.719h5.391c.031-.336.047-.679.047-1.07 0-2.617-1.321-4.024-3.633-4.024-2.399 0-3.774 1.579-3.774 4.282 0 2.781 1.61 4.312 4.461 4.312zm-2.578-4.89c.141-1.258.821-1.961 1.906-1.961 1.11 0 1.774.695 1.774 1.961zm10.555 4.89c2.867 0 4.187-.82 4.187-2.586 0-1.234-.734-1.89-2.281-2.304l-1.953-.539c-.484-.125-.703-.258-.703-.61 0-.531.719-.758 2.406-.758.539 0 1.203.032 2.11.11l.203-1.75c-.805-.102-1.524-.157-2.266-.157-3.07 0-4.484.821-4.484 2.618 0 1.172.625 1.75 1.945 2.109l2.336.664c.422.117.617.274.617.625 0 .547-.633.781-2.117.781-.602 0-1.461-.086-2.68-.25l-.226 1.813c.734.164 1.648.234 2.906.234zm9.375 0c2.867 0 4.187-.82 4.187-2.586 0-1.234-.734-1.89-2.281-2.304l-1.953-.539c-.484-.125-.703-.258-.703-.61 0-.531.719-.758 2.406-.758.539 0 1.203.032 2.109.11l.204-1.75c-.805-.102-1.524-.157-2.266-.157-3.07 0-4.484.821-4.484 2.618 0 1.172.625 1.75 1.945 2.109l2.336.664c.422.117.617.274.617.625 0 .547-.633.781-2.117.781-.602 0-1.461-.086-2.68-.25l-.226 1.813c.734.164 1.648.234 2.906.234zm20.969 0c.757 0 1.39-.062 2.093-.187l-.187-1.766c-.719.094-1.258.156-1.75.156-1.484 0-2.086-.547-2.086-1.836v-3.093h3.711v-1.711h-3.711v-2.5h-1.922v2.5h-2.023v1.711h2.023v3.25c0 2.429 1.125 3.476 3.852 3.476zm7.796 0c2.352 0 3.704-1.562 3.704-4.297 0-2.734-1.352-4.297-3.704-4.297-2.351 0-3.703 1.563-3.703 4.297 0 2.735 1.352 4.297 3.703 4.297zm0-1.797c-1.062 0-1.671-.906-1.671-2.5 0-1.601.609-2.5 1.671-2.5 1.071 0 1.672.899 1.672 2.5 0 1.594-.601 2.5-1.672 2.5zm5.86 1.641h1.93v-3.023h.648c.438 0 .844-.047 1.219-.133l1.695 3.156h2.32l-2.343-4.016c.961-.859 1.562-2.273 1.812-4.265h-1.992c-.336 2.531-1.164 3.461-3.102 3.461h-.257v-6.899h-1.93zm13.648.156c.657 0 1.508-.031 2.539-.218l-.203-1.782c-.726.141-1.422.219-2.148.219-1.438 0-2.375-.594-2.68-1.719h5.391c.031-.336.047-.679.047-1.07 0-2.617-1.321-4.024-3.633-4.024-2.399 0-3.774 1.579-3.774 4.282 0 2.781 1.61 4.312 4.461 4.312zm-2.578-4.89c.141-1.258.82-1.961 1.906-1.961 1.11 0 1.774.695 1.774 1.961zm12.719 4.734h1.93v-5.391c0-1.937-1-3.047-2.75-3.047-1.297 0-1.907.547-2.039 1.657h-.219l-.164-1.5h-1.735v8.281h1.93v-4.344c0-1.539.586-2.297 1.742-2.297.828 0 1.305.563 1.305 1.563zm7.851.156c.774 0 1.391-.625 1.391-1.39 0-.774-.617-1.391-1.391-1.391-.765 0-1.39.617-1.39 1.391 0 .765.625 1.39 1.39 1.39zm0-5.812c.774 0 1.391-.625 1.391-1.391 0-.773-.617-1.391-1.391-1.391-.765 0-1.39.618-1.39 1.391 0 .766.625 1.391 1.39 1.391zm-235.8198 29.656h2.8906l2.9688-11.094h-1.9454l-2.3984 9.453h-.1406l-2.3984-9.453h-1.9454zm12.414.078 2.8438-.078v-1.562l-1.25-.172v-3.219c0-2.188-1.3906-3.344-4.2812-3.383l-1.75-.023-.1563 1.742 2.0625.055c1.5078.039 2.2734.468 2.2734 1.437v.164c-.4765-.101-.9922-.148-1.6406-.148-2.3672 0-3.7109 1-3.7109 2.812 0 1.57 1.0078 2.453 2.7578 2.453 1.4844 0 2.4297-.633 2.5625-1.906h.1797zm-.2578-3.484v.203c0 .859-.7265 1.758-2.1718 1.758-.8204 0-1.2657-.36-1.2657-1.008 0-.695.6407-1.055 1.8438-1.055.5469 0 1.0312 0 1.5937.102zm9.1954 3.562c.9218 0 1.6796-.094 2.5468-.328l-.2187-1.883c-.7031.203-1.2188.297-1.7031.297-1.3126 0-1.5547-.492-1.5547-1.64v-8.321h-4.3047v1.711h2.3828v6.688c0 2.429.8281 3.476 2.8516 3.476zm4.7031-.156h7.5156v-1.711h-2.4922v-6.57h-4.5547v1.726h2.6328v4.844h-3.1015zm3.9687-9.477c.7422 0 1.2735-.531 1.2735-1.273s-.5313-1.273-1.2735-1.273-1.2734.531-1.2734 1.273.5312 1.273 1.2734 1.273zm8.125 9.633c1.2266 0 2.0078-.484 2.1563-1.437h.2031l.2109 1.359 1.6797-.078v-11.719h-1.9297v4.938h-.1875c-.1718-1.11-.8281-1.657-2.1172-1.657-2.0546 0-3.2343 1.594-3.2343 4.376 0 2.718 1.1797 4.218 3.2187 4.218zm2.3203-4.109v.633c0 1.093-.6171 1.64-1.8593 1.64-1.1094 0-1.6875-.804-1.6875-2.382 0-1.665.6093-2.618 1.6797-2.618 1.2421 0 1.8671.75 1.8671 2.297zm9.4453 4.031 2.8438-.078v-1.562l-1.25-.172v-3.219c0-2.188-1.3906-3.344-4.2812-3.383l-1.75-.023-.1563 1.742 2.0625.055c1.5078.039 2.2734.468 2.2734 1.437v.164c-.4765-.101-.9922-.148-1.6406-.148-2.3672 0-3.7109 1-3.7109 2.812 0 1.57 1.0078 2.453 2.7578 2.453 1.4844 0 2.4297-.633 2.5625-1.906h.1797zm-.2578-3.484v.203c0 .859-.7265 1.758-2.1718 1.758-.8204 0-1.2657-.36-1.2657-1.008 0-.695.6407-1.055 1.8438-1.055.5469 0 1.0312 0 1.5937.102zm9.6172 3.562c.7578 0 1.3906-.062 2.0938-.187l-.1875-1.766c-.7188.094-1.2578.156-1.75.156-1.4844 0-2.086-.547-2.086-1.836v-3.093h3.711v-1.711h-3.711v-2.5h-1.9218v2.5h-2.0235v1.711h2.0235v3.25c0 2.429 1.125 3.476 3.8515 3.476zm4.2813-.156h7.5156v-1.711h-2.4922v-6.57h-4.5547v1.726h2.6328v4.844h-3.1015zm3.9687-9.477c.7422 0 1.2735-.531 1.2735-1.273s-.5313-1.273-1.2735-1.273-1.2734.531-1.2734 1.273.5312 1.273 1.2734 1.273zm10.4454 9.477h1.93v-5.391c0-1.937-1-3.047-2.75-3.047-1.297 0-1.907.547-2.039 1.657h-.219l-.164-1.5h-1.735v8.281h1.93v-4.344c0-1.539.586-2.297 1.742-2.297.828 0 1.305.563 1.305 1.563zm7.055.156c1.226 0 2.007-.484 2.156-1.437h.148v.797c0 1.578-.656 2.382-2.195 2.429l-2.656.078.078 1.711 2.422-.078c2.992-.101 4.297-1.437 4.297-4.39v-7.547h-1.774l-.133 1.5h-.211c-.171-1.11-.828-1.657-2.117-1.657-2.054 0-3.234 1.594-3.234 4.376 0 2.718 1.18 4.218 3.219 4.218zm2.32-3.476c0 1.093-.57 1.64-1.742 1.64-1.188 0-1.805-.804-1.805-2.382 0-1.665.649-2.618 1.797-2.618 1.164 0 1.75.703 1.75 2.141zm18.805 3.476c.757 0 1.39-.062 2.093-.187l-.187-1.766c-.719.094-1.258.156-1.75.156-1.485 0-2.086-.547-2.086-1.836v-3.093h3.711v-1.711h-3.711v-2.5h-1.922v2.5h-2.023v1.711h2.023v3.25c0 2.429 1.125 3.476 3.852 3.476zm7.797 0c2.351 0 3.703-1.562 3.703-4.297 0-2.734-1.352-4.297-3.703-4.297-2.352 0-3.704 1.563-3.704 4.297 0 2.735 1.352 4.297 3.704 4.297zm0-1.797c-1.063 0-1.672-.906-1.672-2.5 0-1.601.609-2.5 1.672-2.5 1.07 0 1.671.899 1.671 2.5 0 1.594-.601 2.5-1.671 2.5zm5.859 1.641h1.93v-3.023h.648c.437 0 .844-.047 1.219-.133l1.695 3.156h2.32l-2.343-4.016c.961-.859 1.562-2.273 1.812-4.265h-1.992c-.336 2.531-1.164 3.461-3.102 3.461h-.257v-6.899h-1.93zm13.648.156c.657 0 1.508-.031 2.539-.218l-.203-1.782c-.726.141-1.422.219-2.148.219-1.438 0-2.375-.594-2.68-1.719h5.391c.031-.336.047-.679.047-1.07 0-2.617-1.321-4.024-3.633-4.024-2.399 0-3.774 1.579-3.774 4.282 0 2.781 1.61 4.312 4.461 4.312zm-2.578-4.89c.141-1.258.821-1.961 1.906-1.961 1.11 0 1.774.695 1.774 1.961zm12.719 4.734h1.93v-5.391c0-1.937-1-3.047-2.75-3.047-1.297 0-1.907.547-2.039 1.657h-.219l-.164-1.5h-1.735v8.281h1.93v-4.344c0-1.539.586-2.297 1.742-2.297.828 0 1.305.563 1.305 1.563zm7.852.156c.773 0 1.39-.625 1.39-1.39 0-.774-.617-1.391-1.39-1.391-.766 0-1.391.617-1.391 1.391 0 .765.625 1.39 1.391 1.39zm0-5.812c.773 0 1.39-.625 1.39-1.391 0-.773-.617-1.391-1.39-1.391-.766 0-1.391.618-1.391 1.391 0 .766.625 1.391 1.391 1.391zm18.75 5.812c2.773 0 4.171-1.859 4.171-5.625 0-3.859-1.398-5.781-4.171-5.781-2.774 0-4.172 1.922-4.172 5.781 0 3.766 1.398 5.625 4.172 5.625zm0-1.758c-1.477 0-2.219-1.281-2.219-3.867 0-2.695.742-4.031 2.219-4.031 1.476 0 2.218 1.336 2.218 4.031 0 2.586-.742 3.867-2.218 3.867zm5.859 1.602h1.859v-3.578c.703-.086 1.344-.281 1.922-.57l2 4.148h2.281l-2.711-5.281c1.414-1.43 2.18-3.571 2.18-5.813h-1.898c0 2.68-1.18 5.282-3.774 5.656v-5.656h-1.859z"/><path d="m29.6484 234h2.6485v-11.094h-1.7891v8.578h-.2344l-2.5468-8.578h-2.6485v11.094h1.7891v-8.578h.2344zm10.0078.078 2.8438-.078v-1.562l-1.25-.172v-3.219c0-2.188-1.3906-3.344-4.2812-3.383l-1.75-.023-.1563 1.742 2.0625.055c1.5078.039 2.2734.468 2.2734 1.437v.164c-.4765-.101-.9922-.148-1.6406-.148-2.3672 0-3.7109 1-3.7109 2.812 0 1.57 1.0078 2.453 2.7578 2.453 1.4844 0 2.4297-.633 2.5625-1.906h.1797zm-.2578-3.484v.203c0 .859-.7265 1.758-2.1718 1.758-.8204 0-1.2657-.36-1.2657-1.008 0-.695.6407-1.055 1.8438-1.055.5469 0 1.0312 0 1.5937.102zm10.0235 3.406h1.9062v-6.484c0-1.375-.4922-1.954-1.6172-1.954-.8281 0-1.3203.485-1.3906 1.188h-.1719c-.1484-.797-.6093-1.188-1.2812-1.188-.7813 0-1.2344.407-1.3203 1.188h-.1641l-.1094-1.031h-1.7265v8.281h1.914v-5.75c0-.672.2188-1.008.6719-1.008.375 0 .5625.235.5625.703v6.055h1.5078v-5.75c0-.672.2188-1.008.6641-1.008.375 0 .5547.281.5547.86zm8.1484.156c.6563 0 1.5078-.031 2.5391-.218l-.2032-1.782c-.7265.141-1.4218.219-2.1484.219-1.4375 0-2.375-.594-2.6797-1.719h5.3907c.0312-.336.0468-.679.0468-1.07 0-2.617-1.3203-4.024-3.6328-4.024-2.3984 0-3.7734 1.579-3.7734 4.282 0 2.781 1.6094 4.312 4.4609 4.312zm-2.5781-4.89c.1406-1.258.8203-1.961 1.9062-1.961 1.1094 0 1.7735.695 1.7735 1.961z"/><path d="m28.0469 258.156c2.8672 0 4.1875-.82 4.1875-2.586 0-1.234-.7344-1.89-2.2813-2.304l-1.9531-.539c-.4844-.125-.7031-.258-.7031-.61 0-.531.7187-.758 2.4062-.758.5391 0 1.2031.032 2.1094.11l.2031-1.75c-.8047-.102-1.5234-.157-2.2656-.157-3.0703 0-4.4844.821-4.4844 2.618 0 1.172.625 1.75 1.9453 2.109l2.336.664c.4219.117.6172.274.6172.625 0 .547-.6329.781-2.1172.781-.6016 0-1.461-.086-2.6797-.25l-.2266 1.813c.7344.164 1.6485.234 2.9063.234zm11.539-.156h1.9297v-5.391c0-1.937-1-3.047-2.75-3.047-1.2968 0-1.9062.547-2.039 1.657h-.2188l-.164-1.5h-1.7344v8.281h1.9297v-4.344c0-1.539.5859-2.297 1.7421-2.297.8282 0 1.3047.563 1.3047 1.563zm9.4453.078 2.8438-.078v-1.562l-1.25-.172v-3.219c0-2.188-1.3906-3.344-4.2812-3.383l-1.75-.023-.1563 1.742 2.0625.055c1.5078.039 2.2734.468 2.2734 1.437v.164c-.4765-.101-.9922-.148-1.6406-.148-2.3672 0-3.7109 1-3.7109 2.812 0 1.57 1.0078 2.453 2.7578 2.453 1.4844 0 2.4297-.633 2.5625-1.906h.1797zm-.2578-3.484v.203c0 .859-.7265 1.758-2.1718 1.758-.8204 0-1.2657-.36-1.2657-1.008 0-.695.6407-1.055 1.8438-1.055.5469 0 1.0312 0 1.5937.102zm4.6016 3.406h6.8438v-1.641h-4.5626l4.4063-5v-1.64h-6.6875v1.64h4.4844l-4.4844 5zm9.375 0h6.8438v-1.641h-4.5626l4.4063-5v-1.64h-6.6875v1.64h4.4844l-4.4844 5zm8.6328 3.75 1.4844-.156c2.2812-.242 3.5-1.352 4.4453-4.328l2.3516-7.547h-2.0313l-1.8984 6.703h-.1641l-2.3125-6.703h-2.0312l2.9843 8.281h1c-.5547 1.227-1.3125 1.758-2.5312 1.898l-1.375.157zm9.5703-8.43h7.9688v-1.718h-7.9688zm12.5625 4.836c1.2266 0 2.0078-.484 2.1563-1.437h.2031l.2109 1.359 1.6797-.078v-11.719h-1.9297v4.938h-.1875c-.1718-1.11-.8281-1.657-2.1172-1.657-2.0546 0-3.2343 1.594-3.2343 4.376 0 2.718 1.1797 4.218 3.2187 4.218zm2.3203-4.109v.633c0 1.093-.6171 1.64-1.8593 1.64-1.1094 0-1.6875-.804-1.6875-2.382 0-1.665.6093-2.618 1.6797-2.618 1.2421 0 1.8671.75 1.8671 2.297zm7.8521 4.109c2.351 0 3.703-1.562 3.703-4.297 0-2.734-1.352-4.297-3.703-4.297-2.352 0-3.7036 1.563-3.7036 4.297 0 2.735 1.3516 4.297 3.7036 4.297zm0-1.797c-1.063 0-1.672-.906-1.672-2.5 0-1.601.609-2.5 1.672-2.5 1.07 0 1.671.899 1.671 2.5 0 1.594-.601 2.5-1.671 2.5zm10.531 1.797c.922 0 1.679-.094 2.547-.328l-.219-1.883c-.703.203-1.219.297-1.703.297-1.313 0-1.555-.492-1.555-1.64v-8.321h-4.305v1.711h2.383v6.688c0 2.429.828 3.476 2.852 3.476zm9.015 0c2.047 0 3.219-1.5 3.219-4.218 0-2.782-1.172-4.376-3.234-4.376-1.281 0-1.946.547-2.117 1.657h-.211l-.133-1.5h-1.774v11.875h1.93v-4.875h.188c.148.953.921 1.437 2.132 1.437zm-2.32-3.476v-1.219c0-1.438.586-2.141 1.75-2.141 1.148 0 1.797.953 1.797 2.618 0 1.632-.609 2.46-1.805 2.46-1.172 0-1.742-.57-1.742-1.718zm12.422 3.32h1.93v-5.391c0-1.937-1-3.047-2.75-3.047-1.297 0-1.907.547-2.039 1.657h-.188v-4.938h-1.93v11.719h1.93v-4.422c0-1.516.586-2.258 1.742-2.258.828 0 1.305.555 1.305 1.524zm4.336 0h7.516v-1.711h-2.493v-6.57h-4.554v1.726h2.632v4.844h-3.101zm3.969-9.477c.742 0 1.273-.531 1.273-1.273s-.531-1.273-1.273-1.273c-.743 0-1.274.531-1.274 1.273s.531 1.273 1.274 1.273zm10.445 9.477h1.93v-5.391c0-1.937-1-3.047-2.75-3.047-1.297 0-1.907.547-2.039 1.657h-.219l-.164-1.5h-1.735v8.281h1.93v-4.344c0-1.539.586-2.297 1.742-2.297.828 0 1.305.563 1.305 1.563z"/><path d="m189.172 234h1.859v-3.281h1.485c2.75 0 4.312-1.446 4.312-3.985 0-2.429-1.562-3.828-4.312-3.828h-3.344zm1.859-5.016v-4.343h1.485c1.476 0 2.32.789 2.32 2.171 0 1.376-.844 2.172-2.32 2.172zm10.063 5.172c1.101 0 1.89-.625 2.156-1.75h.203l.117 1.672 2.93-.078v-1.562l-1.141-.172v-6.547h-1.929v4.14c0 1.805-.555 2.5-1.633 2.5-.852 0-1.352-.531-1.352-1.484v-5.156h-1.929v5.469c0 1.89.937 2.968 2.578 2.968zm9.187 0c3.297 0 5.172-1.765 5.172-4.844 0-2.39-1.219-3.75-3.351-3.75-1.219 0-1.875.547-1.993 1.657h-.195v-4.938h-1.93v11.719c.774.094 1.516.156 2.297.156zm-.367-4.812c0-1.36.641-2.024 1.914-2.024 1.047 0 1.633.719 1.633 1.992 0 1.961-1.031 3.086-2.852 3.086-.226 0-.461 0-.695-.007zm12.055 4.812c.922 0 1.679-.094 2.547-.328l-.219-1.883c-.703.203-1.219.297-1.703.297-1.313 0-1.555-.492-1.555-1.64v-8.321h-4.305v1.711h2.383v6.688c0 2.429.828 3.476 2.852 3.476zm4.703-.156h7.516v-1.711h-2.493v-6.57h-4.554v1.726h2.632v4.844h-3.101zm3.969-9.477c.742 0 1.273-.531 1.273-1.273s-.531-1.273-1.273-1.273c-.743 0-1.274.531-1.274 1.273s.531 1.273 1.274 1.273zm9.757 9.633c.883 0 1.829-.047 2.696-.234l-.203-1.766c-.743.125-1.524.203-2.305.203-1.727 0-2.695-.906-2.695-2.593 0-1.539.804-2.407 2.187-2.407.852 0 1.594.422 2.055 1.157l1.429-1.118c-.507-1.171-1.75-1.836-3.421-1.836-2.75 0-4.282 1.579-4.282 4.282 0 2.781 1.641 4.312 4.539 4.312zm14.461-.156h6.907v-1.711h-2.532v-7.68h2.532v-1.703h-6.907v1.703h2.516v7.68h-2.516zm9.313 0h1.859v-3.281h1.485c2.75 0 4.312-1.446 4.312-3.985 0-2.429-1.562-3.828-4.312-3.828h-3.344zm1.859-5.016v-4.343h1.485c1.476 0 2.32.789 2.32 2.171 0 1.376-.844 2.172-2.32 2.172zm9.774 5.016h2.515l2.883-8.281h-2l-2.07 6.601h-.141l-2.07-6.601h-2zm6.445-2.336h5.406v2.336h1.86v-2.336h1.062v-1.68h-1.062v-7.078h-1.86v7.078h-3.211l1.157-6.453h-1.907z"/><path d="m189.266 258h7.375v-1.719h-4.43v-.273c2.672-1.813 3.961-3.774 3.961-5.914 0-2.235-1.18-3.344-3.578-3.344-1.516 0-3.016.727-3.766 1.828l1.156 1.266c.68-.813 1.704-1.344 2.578-1.344 1.11 0 1.657.562 1.657 1.672 0 2.07-1.625 4.023-4.953 5.812zm12.796.156c2.571 0 3.86-1.859 3.86-5.625 0-3.859-1.289-5.781-3.86-5.781-2.57 0-3.859 1.922-3.859 5.781 0 3.766 1.289 5.625 3.859 5.625zm0-1.695c-1.281 0-1.929-1.305-1.929-3.93 0-2.734.648-4.086 1.929-4.086 1.282 0 1.915 1.352 1.915 4.086 0 2.625-.633 3.93-1.915 3.93zm-.007-2.602c.656 0 1.093-.523 1.093-1.328 0-.804-.437-1.328-1.093-1.328-.657 0-1.094.524-1.094 1.328 0 .805.437 1.328 1.094 1.328zm9.484 4.297c2.406 0 3.758-1.359 3.758-3.695 0-2.227-1.094-3.492-3.031-3.492-1.266 0-2.188.656-2.485 1.812h-.179c.007-2.648 1.593-4.008 4.836-4.148l-.157-1.774c-4.515.219-6.687 2.36-6.687 6.5v.532c0 2.718 1.422 4.265 3.945 4.265zm.016-1.758c-1.305 0-1.969-.617-1.969-1.859 0-1.156.687-1.82 1.898-1.82 1.172 0 1.821.625 1.821 1.742 0 1.234-.633 1.937-1.75 1.937zm9.257 1.758c.727 0 1.313-.594 1.313-1.312 0-.735-.586-1.321-1.313-1.321-.726 0-1.312.586-1.312 1.321 0 .718.586 1.312 1.312 1.312zm5.938-.156h7.047v-1.68h-2.414v-9.414h-1.922l-2.555.938v1.812l2.555-.906v7.57h-2.711zm12.812.156c2.461 0 3.86-1.172 3.86-3.203 0-1.5-.906-2.476-2.547-2.805v-.101c1.437-.313 2.234-1.18 2.234-2.485 0-1.781-1.289-2.812-3.547-2.812-2.257 0-3.546 1.031-3.546 2.812 0 1.305.804 2.18 2.25 2.485v.101c-1.649.321-2.563 1.305-2.563 2.805 0 2.031 1.399 3.203 3.859 3.203zm0-1.758c-1.203 0-1.89-.601-1.89-1.656 0-1.086.687-1.719 1.89-1.719 1.204 0 1.891.633 1.891 1.719 0 1.055-.687 1.656-1.891 1.656zm0-5.14c-1 0-1.578-.492-1.578-1.328 0-.914.578-1.43 1.578-1.43s1.579.516 1.579 1.43c0 .836-.579 1.328-1.579 1.328zm6.547 6.844c4.516-.219 6.688-2.422 6.688-6.657v-.375c0-2.718-1.422-4.265-3.945-4.265-2.399 0-3.758 1.351-3.758 3.695 0 2.219 1.094 3.492 3.031 3.492 1.266 0 2.187-.656 2.484-1.812h.18c-.008 2.648-1.594 4.015-4.836 4.14zm2.797-5.868c-1.187 0-1.844-.625-1.844-1.734 0-1.234.641-1.945 1.774-1.945 1.305 0 1.961.625 1.961 1.867 0 1.164-.688 1.812-1.891 1.812zm9.406 5.922c.727 0 1.313-.594 1.313-1.312 0-.735-.586-1.321-1.313-1.321-.726 0-1.312.586-1.312 1.321 0 .718.586 1.312 1.312 1.312zm5.938-.156h7.047v-1.68h-2.414v-9.414h-1.922l-2.555.938v1.812l2.555-.906v7.57h-2.711zm12.812.156c2.571 0 3.86-1.859 3.86-5.625 0-3.859-1.289-5.781-3.86-5.781-2.57 0-3.859 1.922-3.859 5.781 0 3.766 1.289 5.625 3.859 5.625zm0-1.695c-1.281 0-1.929-1.305-1.929-3.93 0-2.734.648-4.086 1.929-4.086 1.282 0 1.915 1.352 1.915 4.086 0 2.625-.633 3.93-1.915 3.93zm-.007-2.602c.656 0 1.093-.523 1.093-1.328 0-.804-.437-1.328-1.093-1.328-.657 0-1.094.524-1.094 1.328 0 .805.437 1.328 1.094 1.328zm5.945 4.141h7.047v-1.68h-2.414v-9.414h-1.922l-2.555.938v1.812l2.555-.906v7.57h-2.711zm12.812.156c.727 0 1.313-.594 1.313-1.312 0-.735-.586-1.321-1.313-1.321-.726 0-1.312.586-1.312 1.321 0 .718.586 1.312 1.312 1.312zm5.938-.156h7.047v-1.68h-2.414v-9.414h-1.922l-2.555.938v1.812l2.555-.906v7.57h-2.711zm12.812.156c2.461 0 3.86-1.172 3.86-3.203 0-1.5-.906-2.476-2.547-2.805v-.101c1.437-.313 2.234-1.18 2.234-2.485 0-1.781-1.289-2.812-3.547-2.812-2.257 0-3.546 1.031-3.546 2.812 0 1.305.804 2.18 2.25 2.485v.101c-1.649.321-2.563 1.305-2.563 2.805 0 2.031 1.399 3.203 3.859 3.203zm0-1.758c-1.203 0-1.89-.601-1.89-1.656 0-1.086.687-1.719 1.89-1.719 1.204 0 1.891.633 1.891 1.719 0 1.055-.687 1.656-1.891 1.656zm0-5.14c-1 0-1.578-.492-1.578-1.328 0-.914.578-1.43 1.578-1.43s1.579.516 1.579 1.43c0 .836-.579 1.328-1.579 1.328zm9.407 6.898c2.414 0 3.906-1.437 3.906-3.773 0-2.242-1.25-3.617-3.297-3.617-.625 0-1.289.101-1.883.351l.141-2.492h4.336v-1.719h-6.141l-.156 6.071h1.187c.586-.313 1.211-.469 1.891-.469 1.219 0 1.953.703 1.953 1.875 0 1.25-.711 2.015-1.883 2.015-1.187 0-1.851-.609-1.851-1.664h-1.969c0 2.172 1.367 3.422 3.766 3.422z"/><path d="m362.016 234h1.859v-4.125h2.031.086l1.781 4.125h2.227l-2.156-4.523c1.133-.547 1.75-1.657 1.75-3.211 0-2.141-1.336-3.36-3.688-3.36h-3.89zm1.859-5.859v-3.5h2.031c1.071 0 1.696.64 1.696 1.781 0 1.086-.625 1.719-1.696 1.719zm11.945 6.015c.657 0 1.508-.031 2.539-.218l-.203-1.782c-.726.141-1.422.219-2.148.219-1.438 0-2.375-.594-2.68-1.719h5.391c.031-.336.047-.679.047-1.07 0-2.617-1.321-4.024-3.633-4.024-2.399 0-3.774 1.579-3.774 4.282 0 2.781 1.61 4.312 4.461 4.312zm-2.578-4.89c.141-1.258.82-1.961 1.906-1.961 1.11 0 1.774.695 1.774 1.961zm10.399 4.89c1.226 0 2.007-.484 2.156-1.437h.148v.797c0 1.578-.656 2.382-2.195 2.429l-2.656.078.078 1.711 2.422-.078c2.992-.101 4.297-1.437 4.297-4.39v-7.547h-1.774l-.133 1.5h-.211c-.171-1.11-.828-1.657-2.117-1.657-2.054 0-3.234 1.594-3.234 4.376 0 2.718 1.18 4.218 3.219 4.218zm2.32-3.476c0 1.093-.57 1.64-1.742 1.64-1.188 0-1.805-.804-1.805-2.382 0-1.665.648-2.618 1.797-2.618 1.164 0 1.75.703 1.75 2.141zm4.336 3.32h7.515v-1.711h-2.492v-6.57h-4.554v1.726h2.632v4.844h-3.101zm3.969-9.477c.742 0 1.273-.531 1.273-1.273s-.531-1.273-1.273-1.273c-.743 0-1.274.531-1.274 1.273s.531 1.273 1.274 1.273zm8.922 9.633c2.351 0 3.703-1.562 3.703-4.297 0-2.734-1.352-4.297-3.703-4.297-2.352 0-3.704 1.563-3.704 4.297 0 2.735 1.352 4.297 3.704 4.297zm0-1.797c-1.063 0-1.672-.906-1.672-2.5 0-1.601.609-2.5 1.672-2.5 1.07 0 1.671.899 1.671 2.5 0 1.594-.601 2.5-1.671 2.5zm10.898 1.641h1.93v-5.391c0-1.937-1-3.047-2.75-3.047-1.297 0-1.907.547-2.039 1.657h-.219l-.164-1.5h-1.735v8.281h1.93v-4.344c0-1.539.586-2.297 1.742-2.297.828 0 1.305.563 1.305 1.563z"/><path d="m367.211 258h1.93v-5.391c0-1.937-1-3.047-2.75-3.047-1.297 0-1.907.547-2.039 1.657h-.219l-.164-1.5h-1.735v8.281h1.93v-4.344c0-1.539.586-2.297 1.742-2.297.828 0 1.305.563 1.305 1.563zm3.672 3.75 1.484-.156c2.281-.242 3.5-1.352 4.445-4.328l2.352-7.547h-2.031l-1.899 6.703h-.164l-2.312-6.703h-2.031l2.984 8.281h1c-.555 1.227-1.313 1.758-2.531 1.898l-1.375.157zm14.39-3.594c.883 0 1.829-.047 2.696-.234l-.203-1.766c-.743.125-1.524.203-2.305.203-1.727 0-2.695-.906-2.695-2.593 0-1.539.804-2.407 2.187-2.407.852 0 1.594.422 2.055 1.157l1.43-1.118c-.508-1.171-1.75-1.836-3.422-1.836-2.75 0-4.282 1.579-4.282 4.282 0 2.781 1.641 4.312 4.539 4.312zm7.868 0c2.687 0 4.218-1.14 4.218-3.125 0-1.562-1.086-2.547-2.703-2.75v-.219c1.469-.382 2.469-1.453 2.469-2.828 0-1.593-1.172-2.484-3.25-2.484-1.586 0-2.867.43-3.852 1.438l1.079 1.382c.851-.711 1.867-1.07 2.687-1.07.891 0 1.367.414 1.367 1.125 0 1.016-.961 1.75-3.25 2.047l.188 1.484h.25c1.937 0 3.047.602 3.047 1.68 0 .992-.844 1.562-2.313 1.562-1.25 0-2.008-.25-2.664-.429l-.195 1.812c.758.227 1.742.375 2.922.375z"/><path d="m451.234 234h6.907v-1.711h-2.532v-7.68h2.532v-1.703h-6.907v1.703h2.516v7.68h-2.516zm14.813 0h1.906v-6.484c0-1.375-.492-1.954-1.617-1.954-.828 0-1.32.485-1.391 1.188h-.172c-.148-.797-.609-1.188-1.281-1.188-.781 0-1.234.407-1.32 1.188h-.164l-.11-1.031h-1.726v8.281h1.914v-5.75c0-.672.219-1.008.672-1.008.375 0 .562.235.562.703v6.055h1.508v-5.75c0-.672.219-1.008.664-1.008.375 0 .555.281.555.86zm8.984.078 2.844-.078v-1.562l-1.25-.172v-3.219c0-2.188-1.391-3.344-4.281-3.383l-1.75-.023-.156 1.742 2.062.055c1.508.039 2.273.468 2.273 1.437v.164c-.476-.101-.992-.148-1.64-.148-2.367 0-3.711 1-3.711 2.812 0 1.57 1.008 2.453 2.758 2.453 1.484 0 2.429-.633 2.562-1.906h.18zm-.258-3.484v.203c0 .859-.726 1.758-2.171 1.758-.821 0-1.266-.36-1.266-1.008 0-.695.641-1.055 1.844-1.055.547 0 1.031 0 1.593.102zm7.243 3.562c1.226 0 2.007-.484 2.156-1.437h.148v.797c0 1.578-.656 2.382-2.195 2.429l-2.656.078.078 1.711 2.422-.078c2.992-.101 4.297-1.437 4.297-4.39v-7.547h-1.774l-.133 1.5h-.211c-.171-1.11-.828-1.657-2.117-1.657-2.054 0-3.234 1.594-3.234 4.376 0 2.718 1.18 4.218 3.219 4.218zm2.32-3.476c0 1.093-.57 1.64-1.742 1.64-1.188 0-1.805-.804-1.805-2.382 0-1.665.649-2.618 1.797-2.618 1.164 0 1.75.703 1.75 2.141zm8.609 3.476c.657 0 1.508-.031 2.539-.218l-.203-1.782c-.726.141-1.422.219-2.148.219-1.438 0-2.375-.594-2.68-1.719h5.391c.031-.336.047-.679.047-1.07 0-2.617-1.321-4.024-3.633-4.024-2.399 0-3.774 1.579-3.774 4.282 0 2.781 1.61 4.312 4.461 4.312zm-2.578-4.89c.141-1.258.821-1.961 1.906-1.961 1.11 0 1.774.695 1.774 1.961z"/><path d="m451.266 258h7.375v-1.719h-4.43v-.273c2.672-1.813 3.961-3.774 3.961-5.914 0-2.235-1.18-3.344-3.578-3.344-1.516 0-3.016.727-3.766 1.828l1.156 1.266c.68-.813 1.704-1.344 2.578-1.344 1.11 0 1.657.562 1.657 1.672 0 2.07-1.625 4.023-4.953 5.812zm12.796.156c2.571 0 3.86-1.859 3.86-5.625 0-3.859-1.289-5.781-3.86-5.781-2.57 0-3.859 1.922-3.859 5.781 0 3.766 1.289 5.625 3.859 5.625zm0-1.695c-1.281 0-1.929-1.305-1.929-3.93 0-2.734.648-4.086 1.929-4.086 1.282 0 1.915 1.352 1.915 4.086 0 2.625-.633 3.93-1.915 3.93zm-.007-2.602c.656 0 1.093-.523 1.093-1.328 0-.804-.437-1.328-1.093-1.328-.657 0-1.094.524-1.094 1.328 0 .805.437 1.328 1.094 1.328zm9.383 4.297c.726 0 1.312-.594 1.312-1.312 0-.735-.586-1.321-1.312-1.321-.727 0-1.313.586-1.313 1.321 0 .718.586 1.312 1.313 1.312zm9.374 0c2.571 0 3.86-1.859 3.86-5.625 0-3.859-1.289-5.781-3.86-5.781-2.57 0-3.859 1.922-3.859 5.781 0 3.766 1.289 5.625 3.859 5.625zm0-1.695c-1.281 0-1.929-1.305-1.929-3.93 0-2.734.648-4.086 1.929-4.086 1.282 0 1.915 1.352 1.915 4.086 0 2.625-.633 3.93-1.915 3.93zm-.007-2.602c.656 0 1.093-.523 1.093-1.328 0-.804-.437-1.328-1.093-1.328-.657 0-1.094.524-1.094 1.328 0 .805.437 1.328 1.094 1.328zm5.195 1.805h5.406v2.336h1.86v-2.336h1.062v-1.68h-1.062v-7.078h-1.86v7.078h-3.211l1.157-6.453h-1.907zm18.961 2.336h2.266l1.671-2.711 1.75 2.711h2.266l-3.047-4.156 3.047-4.125h-2.266l-1.71 2.719-1.711-2.719h-2.266l3.008 4.187zm13.453.156c2.406 0 3.758-1.359 3.758-3.695 0-2.227-1.094-3.492-3.031-3.492-1.266 0-2.188.656-2.485 1.812h-.179c.007-2.648 1.593-4.008 4.835-4.148l-.156-1.774c-4.515.219-6.687 2.36-6.687 6.5v.532c0 2.718 1.422 4.265 3.945 4.265zm.016-1.758c-1.305 0-1.969-.617-1.969-1.859 0-1.156.687-1.82 1.898-1.82 1.172 0 1.821.625 1.821 1.742 0 1.234-.633 1.937-1.75 1.937zm5.07-.734h5.406v2.336h1.86v-2.336h1.062v-1.68h-1.062v-7.078h-1.86v7.078h-3.211l1.157-6.453h-1.907z"/></g></svg>