<svg fill="none" height="32" viewBox="0 0 32 32" width="32" xmlns="http://www.w3.org/2000/svg"><rect fill="#e7e7f3" height="32" rx="4" width="32"/><path d="m13.4027 21.5c5.2831 0 8.1726-4.2323 8.1726-7.9026 0-.1202 0-.2399-.0084-.359.5622-.3932 1.0475-.88 1.4331-1.4377-.5242.2246-1.0804.3719-1.6498.437.5997-.3471 1.0484-.8931 1.2628-1.5363-.5638.3235-1.1806.5515-1.8239.6741-.8904-.9154-2.3051-1.1394-3.451-.5465-1.1458.593-1.7378 1.8555-1.444 3.0797-1.1419-.0554-2.2591-.3423-3.2789-.8422-1.0199-.4999-1.9196-1.2016-2.64079-2.0596-.76235 1.2691-.37295 2.8926.88919 3.7075-.457-.013-.90414-.1323-1.30356-.3475v.0352c.00041 1.3221.96416 2.4608 2.30436 2.7226-.4228.1115-.8665.1278-1.2969.0476.3762 1.1315 1.4546 1.9065 2.6835 1.9289-1.0171.7729-2.2735 1.1925-3.56717 1.1913-.22856-.0004-.45689-.0138-.68383-.0401 1.3136.8151 2.842 1.2475 4.4027 1.2455" fill="#080b2d"/></svg>