<svg fill="none" height="32" viewBox="0 0 32 32" width="32" xmlns="http://www.w3.org/2000/svg"><rect fill="#e7e7f3" height="32" rx="4" width="32"/><path d="m22.7116 12.5647c.2999 1.1176.2883 3.447.2883 3.447s0 2.3177-.2883 3.4354c-.1614.6117-.6342 1.0941-1.2339 1.2588-1.0956.2941-5.4777.2941-5.4777.2941s-4.3707 0-5.4778-.3059c-.59961-.1647-1.07243-.6471-1.23388-1.2588-.28832-1.1058-.28832-3.4353-.28832-3.4353s0-2.3177.28832-3.4353c.16145-.6118.64576-1.1059 1.23388-1.2706 1.0956-.2941 5.4778-.2941 5.4778-.2941s4.3821 0 5.4777.3059c.5997.1647 1.0725.6471 1.2339 1.2588zm-8.107 5.5765 3.6442-2.1412-3.6442-2.1412z" fill="#080b2d"/></svg>